<svg width="20" height="21" viewBox="0 0 20 21" fill="none" xmlns="http://www.w3.org/2000/svg">
<g clip-path="url(#clip0_31_1017)">
<path d="M5.96935 4.95481H6.86069C7.02235 4.95481 7.15319 4.82397 7.15319 4.66231C7.15319 4.50066 7.02235 4.36981 6.86069 4.36981H5.96935C5.80769 4.36981 5.67685 4.50066 5.67685 4.66231C5.67685 4.82397 5.80769 4.95481 5.96935 4.95481Z" fill="#989898"/>
<path d="M8.38356 4.95475H9.27491C9.43656 4.95475 9.56741 4.82391 9.56741 4.66225C9.56741 4.5006 9.43656 4.36975 9.27491 4.36975H8.38356C8.22191 4.36975 8.09106 4.5006 8.09106 4.66225C8.09106 4.82391 8.22191 4.95475 8.38356 4.95475Z" fill="#989898"/>
<path d="M7.62185 6.5793C7.7835 6.5793 7.91435 6.44845 7.91435 6.2868V5.42373C7.91435 5.26207 7.7835 5.13123 7.62185 5.13123C7.46019 5.13123 7.32935 5.26207 7.32935 5.42373V6.2868C7.32935 6.44845 7.46019 6.5793 7.62185 6.5793Z" fill="#989898"/>
<path d="M7.62185 4.1933C7.7835 4.1933 7.91435 4.06245 7.91435 3.9008V3.03792C7.91435 2.87627 7.7835 2.74542 7.62185 2.74542C7.46019 2.74542 7.32935 2.87627 7.32935 3.03792V3.9008C7.32935 4.06245 7.46019 4.1933 7.62185 4.1933Z" fill="#989898"/>
<path d="M11.3646 16.7834C11.8689 16.7834 12.2792 16.3732 12.2792 15.8691C12.2792 15.365 11.8689 14.9545 11.3646 14.9545C10.8604 14.9545 10.4503 15.3648 10.4503 15.8691C10.4503 16.3733 10.8604 16.7834 11.3646 16.7834V16.7834ZM11.3646 15.5393C11.5464 15.5393 11.6942 15.6873 11.6942 15.8689C11.6942 16.0504 11.5462 16.1982 11.3646 16.1982C11.1831 16.1982 11.0353 16.0504 11.0353 15.8689C11.0353 15.6873 11.1831 15.5393 11.3646 15.5393V15.5393Z" fill="#989898"/>
<path d="M18.7537 3.53906C18.9152 3.53906 19.0462 3.40822 19.0462 3.24656C19.0462 3.08491 18.9152 2.95406 18.7537 2.95406H17.3887V1.78465H18.7537C18.9152 1.78465 19.0462 1.6538 19.0462 1.49215C19.0462 1.33049 18.9152 1.19965 18.7537 1.19965H1.20372C1.04207 1.19965 0.911224 1.33049 0.911224 1.49215C0.911224 1.6538 1.04207 1.78465 1.20372 1.78465H2.56872V2.95406H1.20372C1.04207 2.95406 0.911224 3.08491 0.911224 3.24656C0.911224 3.40822 1.04207 3.53906 1.20372 3.53906H2.56872V4.70848H1.20372C1.04207 4.70848 0.911224 4.83932 0.911224 5.00098C0.911224 5.16263 1.04207 5.29348 1.20372 5.29348H2.56872V6.46289H1.20372C1.04207 6.46289 0.911224 6.59374 0.911224 6.75539C0.911224 6.91705 1.04207 7.04789 1.20372 7.04789H2.56872V8.21731H1.20372C1.04207 8.21731 0.911224 8.34815 0.911224 8.50981C0.911224 8.67146 1.04207 8.80231 1.20372 8.80231H2.56872V9.97172H1.20372C1.04207 9.97172 0.911224 10.1026 0.911224 10.2642C0.911224 10.4259 1.04207 10.5567 1.20372 10.5567H2.56872V11.7261H1.20372C1.04207 11.7261 0.911224 11.8572 0.911224 12.0186C0.911224 12.1801 1.04207 12.3111 1.20372 12.3111H2.56872V13.4806H1.20372C1.04207 13.4806 0.911224 13.6116 0.911224 13.7731C0.911224 13.9345 1.04207 14.0656 1.20372 14.0656H2.56872V15.235H1.20372C1.04207 15.235 0.911224 15.366 0.911224 15.5275C0.911224 15.6889 1.04207 15.82 1.20372 15.82H2.56872V16.9894H1.20372C1.04207 16.9894 0.911224 17.1204 0.911224 17.2819C0.911224 17.4433 1.04207 17.5744 1.20372 17.5744H2.56872V18.7436H1.20372C1.04207 18.7436 0.911224 18.8746 0.911224 19.0361C0.911224 19.1976 1.04207 19.3286 1.20372 19.3286C1.20372 19.3286 17.6009 19.328 17.7551 19.328C18.0857 19.328 18.4164 19.202 18.6681 18.9505C19.1716 18.447 19.1716 17.628 18.6681 17.1245L17.3887 15.8453V15.82H18.7537C18.9152 15.82 19.0462 15.6889 19.0462 15.5275C19.0462 15.366 18.9152 15.235 18.7537 15.235H17.3887V14.0656H18.7537C18.9152 14.0656 19.0462 13.9345 19.0462 13.7731C19.0462 13.6116 18.9152 13.4806 18.7537 13.4806H17.3887V12.3111H18.7537C18.9152 12.3111 19.0462 12.1801 19.0462 12.0186C19.0462 11.8572 18.9152 11.7261 18.7537 11.7261H17.3887V10.5567H18.7537C18.9152 10.5567 19.0462 10.4259 19.0462 10.2642C19.0462 10.1026 18.9152 9.97172 18.7537 9.97172H17.3887V8.80231H18.7537C18.9152 8.80231 19.0462 8.67146 19.0462 8.50981C19.0462 8.34815 18.9152 8.21731 18.7537 8.21731H17.3887V7.04789H18.7537C18.9152 7.04789 19.0462 6.91705 19.0462 6.75539C19.0462 6.59374 18.9152 6.46289 18.7537 6.46289H17.3887V5.29367H18.7537C18.9152 5.29367 19.0462 5.16283 19.0462 5.00117C19.0462 4.83952 18.9152 4.70867 18.7537 4.70867H17.3887V3.53926H18.7537V3.53906ZM16.8037 15.2603L13.939 12.3956L14.1016 12.2329C14.1564 12.1781 14.1872 12.1037 14.1872 12.026C14.1872 11.9484 14.1564 11.8741 14.1016 11.8192L13.1724 10.8902L15.3878 8.67458C15.5021 8.56051 15.5021 8.37506 15.3878 8.26099L8.91129 1.78465H16.8037V15.2603ZM11.7437 13.7639L11.0214 13.0416L12.7588 11.3042L13.4811 12.0262L11.7437 13.7639ZM3.15372 10.0183V1.78465H8.0841L12.439 6.13958L8.62815 9.95047L7.82846 9.15077C7.71419 9.0365 7.52913 9.0365 7.41486 9.15077C7.30059 9.26485 7.30059 9.4501 7.41486 9.56437L8.21456 10.3641L7.74578 10.8328L6.06371 9.15077C5.94944 9.0365 5.76438 9.0365 5.65011 9.15077C5.53584 9.26485 5.53584 9.4501 5.65011 9.56437L7.33218 11.2464L5.85701 12.7216L3.15372 10.0183ZM8.1855 15.0501L6.2706 13.1352L12.8526 6.55318L14.7675 8.46808L8.1855 15.0501ZM3.15372 10.8455L7.97861 15.6706C8.0334 15.7254 8.10789 15.7562 8.1855 15.7562C8.26311 15.7562 8.33741 15.7254 8.3924 15.6706L10.6078 13.4552L11.537 14.3844C11.5918 14.4392 11.6663 14.47 11.7439 14.47C11.8215 14.47 11.8958 14.4392 11.9508 14.3844L12.1134 14.2217L16.6354 18.7438H12.8304C12.6894 17.8612 11.925 17.1838 11.0033 17.1838H10.2281C10.155 16.519 9.59009 16.0003 8.90622 16.0003C8.27208 16.0003 7.74012 16.4451 7.60655 17.0387C6.58377 17.0063 5.71329 17.7594 5.56665 18.7438H3.15372V10.8455ZM6.15789 18.7438C6.29283 18.1042 6.86184 17.6225 7.54122 17.6225C7.62975 17.6225 7.71965 17.6311 7.81578 17.6491C7.91094 17.6668 8.00961 17.6354 8.07786 17.566C8.14007 17.5024 8.16971 17.4147 8.15937 17.3271C8.16093 16.9176 8.49536 16.5851 8.90622 16.5851C9.31689 16.5851 9.65112 16.9192 9.65112 17.3299C9.65112 17.3634 9.64839 17.3969 9.64313 17.4305C9.62967 17.5151 9.65405 17.6011 9.70962 17.6662C9.7652 17.7312 9.84652 17.7686 9.93212 17.7686H11.0034C11.6017 17.7686 12.1044 18.1853 12.2368 18.7436H6.15789V18.7438ZM18.2543 18.5371C17.979 18.812 17.5311 18.812 17.2557 18.5371L12.5266 13.808L13.5252 12.8092L18.2543 17.5383C18.5299 17.8136 18.5299 18.2618 18.2543 18.5371Z" fill="#989898"/>
</g>
<defs>
<clipPath id="clip0_31_1017">
<rect width="19.5" height="19.5" fill="white" transform="translate(0.228516 0.514282)"/>
</clipPath>
</defs>
</svg>
