<svg width="20" height="21" viewBox="0 0 20 21" fill="none" xmlns="http://www.w3.org/2000/svg">
<g clip-path="url(#clip0_31_1053)">
<path d="M13.5205 19.4049H4.98926C4.90845 19.4049 4.83095 19.3728 4.77381 19.3157C4.71667 19.2586 4.68457 19.1811 4.68457 19.1003V2.95181H5.59863C5.67944 2.95181 5.75694 2.91971 5.81408 2.86257C5.87122 2.80543 5.90332 2.72793 5.90332 2.64713C5.90332 2.56632 5.87122 2.48882 5.81408 2.43168C5.75694 2.37454 5.67944 2.34244 5.59863 2.34244H4.0752V1.12369H10.7783V2.34244H6.81738C6.73657 2.34244 6.65908 2.37454 6.60194 2.43168C6.5448 2.48882 6.5127 2.56632 6.5127 2.64713C6.5127 2.72793 6.5448 2.80543 6.60194 2.86257C6.65908 2.91971 6.73657 2.95181 6.81738 2.95181H10.1689V13.6159C10.1689 13.6967 10.201 13.7742 10.2582 13.8313C10.3153 13.8885 10.3928 13.9206 10.4736 13.9206H13.2158V16.0534C13.2158 16.1342 13.2479 16.2117 13.3051 16.2688C13.3622 16.326 13.4397 16.3581 13.5205 16.3581C13.6013 16.3581 13.6788 16.326 13.736 16.2688C13.7931 16.2117 13.8252 16.1342 13.8252 16.0534V13.6159C13.8252 13.5351 13.7931 13.4576 13.736 13.4004C13.6788 13.3433 13.6013 13.3112 13.5205 13.3112H10.7783V2.95181H11.083C11.1638 2.95181 11.2413 2.91971 11.2985 2.86257C11.3556 2.80543 11.3877 2.72793 11.3877 2.64713V0.819C11.3877 0.738192 11.3556 0.660694 11.2985 0.603554C11.2413 0.546414 11.1638 0.514313 11.083 0.514313H3.77051C3.6897 0.514313 3.6122 0.546414 3.55506 0.603554C3.49792 0.660694 3.46582 0.738192 3.46582 0.819V2.64713C3.46582 2.72793 3.49792 2.80543 3.55506 2.86257C3.6122 2.91971 3.6897 2.95181 3.77051 2.95181H4.0752V19.1003C4.0752 19.3427 4.1715 19.5752 4.34292 19.7466C4.51434 19.918 4.74683 20.0143 4.98926 20.0143H13.5205C13.6013 20.0143 13.6788 19.9822 13.736 19.9251C13.7931 19.8679 13.8252 19.7904 13.8252 19.7096C13.8252 19.6288 13.7931 19.5513 13.736 19.4942C13.6788 19.437 13.6013 19.4049 13.5205 19.4049Z" fill="#989898"/>
<path d="M15.958 17.5768H9.25488C8.85099 17.5763 8.46378 17.4156 8.17818 17.13C7.89259 16.8444 7.73193 16.4572 7.73145 16.0533V6.73417L8.43009 7.43282C8.48756 7.48832 8.56452 7.51903 8.64441 7.51834C8.7243 7.51765 8.80072 7.4856 8.85721 7.42911C8.9137 7.37262 8.94575 7.2962 8.94644 7.21631C8.94713 7.13642 8.91642 7.05946 8.86092 7.00199L8.16227 6.30334H8.9502C9.031 6.30334 9.1085 6.27124 9.16564 6.2141C9.22278 6.15696 9.25488 6.07947 9.25488 5.99866C9.25488 5.91785 9.22278 5.84035 9.16564 5.78321C9.1085 5.72607 9.031 5.69397 8.9502 5.69397H8.16227L8.86092 4.99532C8.91642 4.93786 8.94713 4.86089 8.94644 4.781C8.94575 4.70112 8.9137 4.6247 8.85721 4.5682C8.80072 4.51171 8.7243 4.47967 8.64441 4.47898C8.56452 4.47828 8.48756 4.50899 8.43009 4.56449L7.73145 5.26314V4.47522C7.73145 4.39441 7.69934 4.31691 7.6422 4.25977C7.58506 4.20263 7.50757 4.17053 7.42676 4.17053C7.34595 4.17053 7.26845 4.20263 7.21131 4.25977C7.15417 4.31691 7.12207 4.39441 7.12207 4.47522V5.26314L6.42342 4.56449C6.36596 4.50899 6.28899 4.47828 6.2091 4.47898C6.12922 4.47967 6.0528 4.51171 5.99631 4.5682C5.93981 4.6247 5.90777 4.70112 5.90708 4.781C5.90638 4.86089 5.93709 4.93786 5.99259 4.99532L6.69124 5.69397H5.90332C5.82251 5.69397 5.74501 5.72607 5.68787 5.78321C5.63073 5.84035 5.59863 5.91785 5.59863 5.99866C5.59863 6.07947 5.63073 6.15696 5.68787 6.2141C5.74501 6.27124 5.82251 6.30334 5.90332 6.30334H6.69124L5.99259 7.00199C5.96349 7.0301 5.94028 7.06372 5.92431 7.10089C5.90834 7.13807 5.89994 7.17805 5.89959 7.2185C5.89924 7.25896 5.90695 7.29908 5.92227 7.33653C5.93759 7.37397 5.96021 7.40799 5.98882 7.4366C6.01743 7.46521 6.05144 7.48783 6.08889 7.50315C6.12633 7.51847 6.16645 7.52618 6.20691 7.52583C6.24737 7.52548 6.28735 7.51707 6.32452 7.5011C6.36169 7.48513 6.39532 7.46192 6.42342 7.43282L7.12207 6.73417V16.0533C7.1228 16.6188 7.34774 17.1608 7.74756 17.5607C8.14738 17.9605 8.68945 18.1854 9.25488 18.1862H15.958C16.0388 18.1862 16.1163 18.1541 16.1735 18.0969C16.2306 18.0398 16.2627 17.9623 16.2627 17.8815C16.2627 17.8007 16.2306 17.7232 16.1735 17.666C16.1163 17.6089 16.0388 17.5768 15.958 17.5768Z" fill="#989898"/>
</g>
<defs>
<clipPath id="clip0_31_1053">
<rect width="19.5" height="19.5" fill="white" transform="translate(0.114258 0.514282)"/>
</clipPath>
</defs>
</svg>
