<svg width="30" height="30" viewBox="0 0 30 30" fill="none" xmlns="http://www.w3.org/2000/svg">
<path d="M26.5153 7.46467L15.3153 2.66467C15.1141 2.57857 14.8862 2.57857 14.685 2.66467L3.48501 7.46467C3.19091 7.59077 3.00021 7.88007 3.00021 8.20007V21.8001C3.00021 22.1201 3.19091 22.4094 3.48511 22.5355L14.6851 27.3355L14.6857 27.3342C14.7858 27.3771 14.8926 27.4002 15.0004 27.4002C15.1071 27.4002 15.2144 27.3788 15.3154 27.3356L26.5154 22.5356C26.8095 22.4094 27.0002 22.1201 27.0002 21.8001V8.20007C27.0002 7.88007 26.8095 7.59077 26.5153 7.46467V7.46467ZM15.0002 4.27047L24.1693 8.20007L15.0002 12.1297L5.83111 8.20007L15.0002 4.27047ZM4.60021 21.2725V9.41327L14.2002 13.5276V25.3868L4.60021 21.2725ZM15.8002 25.3868V13.5276L25.4002 9.41327V21.2725L15.8002 25.3868Z" fill="#313131"/>
</svg>
