<svg width="17" height="19" viewBox="0 0 17 19" fill="none" xmlns="http://www.w3.org/2000/svg">
<path fill-rule="evenodd" clip-rule="evenodd" d="M7.85805 0.170867C8.05344 0.0589169 8.27475 0 8.5 0C8.72524 0 8.94654 0.0589171 9.14194 0.170866L16.3339 4.21636C16.5351 4.33062 16.7026 4.4959 16.8196 4.69555C16.9365 4.8952 16.9987 5.12215 17 5.35353L17 5.35704L17 13.4157H16.3461L17 13.4192C16.9987 13.6506 16.9365 13.8775 16.8196 14.0772C16.7026 14.2768 16.5351 14.4421 16.3339 14.5564L16.3316 14.5577L9.14192 18.6019C8.94653 18.7138 8.72523 18.7727 8.5 18.7727C8.27476 18.7727 8.05346 18.7138 7.85806 18.6019L0.668386 14.5577L0.666064 14.5564C0.464868 14.4421 0.297355 14.2768 0.180417 14.0772C0.0634795 13.8775 0.0012521 13.6506 9.43128e-06 13.4192L0 13.4157V5.35353C0.00124267 5.12216 0.0634795 4.8952 0.180417 4.69555C0.297355 4.4959 0.464868 4.33062 0.666064 4.21636L0.668384 4.21504L7.85805 0.170867ZM15.6923 13.4125V5.36019C15.6922 5.35888 15.6919 5.3576 15.6912 5.35647C15.6905 5.3553 15.6895 5.35432 15.6884 5.35362C15.6883 5.35358 15.6885 5.35367 15.6884 5.35362L8.5 1.31015L1.31182 5.35349C1.31174 5.35353 1.31189 5.35344 1.31182 5.35349C1.31067 5.35419 1.30948 5.3553 1.3088 5.35647C1.30814 5.3576 1.30776 5.35889 1.30769 5.3602V13.4125C1.30776 13.4138 1.30814 13.4151 1.3088 13.4163C1.30948 13.4174 1.31043 13.4184 1.31157 13.4191C1.31166 13.4191 1.31149 13.4191 1.31157 13.4191L8.5 17.4626L15.6882 13.4192C15.6883 13.4192 15.6881 13.4193 15.6882 13.4192C15.6893 13.4185 15.6905 13.4174 15.6912 13.4163C15.6919 13.4151 15.6922 13.4138 15.6923 13.4125Z" fill="#313131"/>
<path fill-rule="evenodd" clip-rule="evenodd" d="M0.172511 4.70363C0.348328 4.38821 0.746553 4.27504 1.06197 4.45086L8.57039 8.63614L15.9332 4.45346C16.2471 4.27509 16.6463 4.38503 16.8246 4.69901C17.003 5.01299 16.8931 5.41212 16.5791 5.59049L8.89639 9.95491C8.69776 10.0678 8.45463 10.0687 8.25508 9.95751L0.42528 5.59309C0.109862 5.41727 -0.00330598 5.01905 0.172511 4.70363Z" fill="#313131"/>
<path fill-rule="evenodd" clip-rule="evenodd" d="M8.5788 8.73257C8.9399 8.73561 9.23016 9.0308 9.22711 9.3919L9.15355 18.1207C9.15051 18.4818 8.85532 18.7721 8.49422 18.7691C8.13313 18.766 7.84287 18.4708 7.84591 18.1097L7.91947 9.38088C7.92251 9.01978 8.2177 8.72952 8.5788 8.73257Z" fill="#313131"/>
</svg>
