<svg width="22" height="22" viewBox="0 0 22 22" fill="none" xmlns="http://www.w3.org/2000/svg">
<g clip-path="url(#clip0_77_8297)">
<path d="M18.3763 6.3999C18.1406 6.3999 17.9145 6.49623 17.7478 6.66769C17.5811 6.83915 17.4874 7.0717 17.4874 7.31419V17.546C17.4619 18.0083 17.2598 18.4416 16.9252 18.7513C16.5905 19.0611 16.1504 19.2224 15.7007 19.1999H8.60741C8.15772 19.2224 7.71762 19.0611 7.38297 18.7513C7.04833 18.4416 6.84625 18.0083 6.82075 17.546V7.31419C6.82075 7.0717 6.7271 6.83915 6.5604 6.66769C6.3937 6.49623 6.16761 6.3999 5.93186 6.3999C5.69611 6.3999 5.47002 6.49623 5.30332 6.66769C5.13662 6.83915 5.04297 7.0717 5.04297 7.31419V17.546C5.06834 18.4934 5.45771 19.3918 6.1258 20.0446C6.79388 20.6973 7.68623 21.0511 8.60741 21.0285H15.7007C16.6219 21.0511 17.5143 20.6973 18.1824 20.0446C18.8505 19.3918 19.2398 18.4934 19.2652 17.546V7.31419C19.2652 7.0717 19.1715 6.83915 19.0048 6.66769C18.8381 6.49623 18.6121 6.3999 18.3763 6.3999Z" fill="#58D7FF"/>
<path d="M19.2644 3.65741H15.7089V1.82884C15.7089 1.58635 15.6152 1.3538 15.4485 1.18234C15.2818 1.01088 15.0557 0.914551 14.82 0.914551H9.48665C9.25091 0.914551 9.02481 1.01088 8.85811 1.18234C8.69142 1.3538 8.59776 1.58635 8.59776 1.82884V3.65741H5.04221C4.80646 3.65741 4.58037 3.75373 4.41367 3.9252C4.24697 4.09666 4.15332 4.32921 4.15332 4.57169C4.15332 4.81418 4.24697 5.04673 4.41367 5.21819C4.58037 5.38965 4.80646 5.48598 5.04221 5.48598H19.2644C19.5002 5.48598 19.7263 5.38965 19.893 5.21819C20.0597 5.04673 20.1533 4.81418 20.1533 4.57169C20.1533 4.32921 20.0597 4.09666 19.893 3.9252C19.7263 3.75373 19.5002 3.65741 19.2644 3.65741ZM10.3755 3.65741V2.74312H13.9311V3.65741H10.3755Z" fill="#58D7FF"/>
<path d="M11.2641 15.5428V9.1428C11.2641 8.90032 11.1705 8.66777 11.0038 8.4963C10.8371 8.32484 10.611 8.22852 10.3752 8.22852C10.1395 8.22852 9.91338 8.32484 9.74668 8.4963C9.57998 8.66777 9.48633 8.90032 9.48633 9.1428V15.5428C9.48633 15.7853 9.57998 16.0178 9.74668 16.1893C9.91338 16.3608 10.1395 16.4571 10.3752 16.4571C10.611 16.4571 10.8371 16.3608 11.0038 16.1893C11.1705 16.0178 11.2641 15.7853 11.2641 15.5428Z" fill="#58D7FF"/>
<path d="M14.8207 15.5428V9.1428C14.8207 8.90032 14.7271 8.66777 14.5604 8.4963C14.3937 8.32484 14.1676 8.22852 13.9319 8.22852C13.6961 8.22852 13.47 8.32484 13.3033 8.4963C13.1366 8.66777 13.043 8.90032 13.043 9.1428V15.5428C13.043 15.7853 13.1366 16.0178 13.3033 16.1893C13.47 16.3608 13.6961 16.4571 13.9319 16.4571C14.1676 16.4571 14.3937 16.3608 14.5604 16.1893C14.7271 16.0178 14.8207 15.7853 14.8207 15.5428Z" fill="#58D7FF"/>
</g>
<defs>
<clipPath id="clip0_77_8297">
<rect width="21.3333" height="21.9429" fill="white" transform="translate(0.666016)"/>
</clipPath>
</defs>
</svg>
