<svg width="20" height="12" viewBox="0 0 20 12" fill="none" xmlns="http://www.w3.org/2000/svg">
<path fill-rule="evenodd" clip-rule="evenodd" d="M11.333 0.313712C11.4445 0.119654 11.6512 0 11.875 0H15C15.4973 0 15.9742 0.197545 16.3258 0.549175C16.6775 0.900805 16.875 1.37772 16.875 1.875C16.875 2.22018 16.5952 2.5 16.25 2.5C15.9048 2.5 15.625 2.22018 15.625 1.875C15.625 1.70924 15.5592 1.55027 15.4419 1.43306C15.3247 1.31585 15.1658 1.25 15 1.25H12.9631L16.7899 7.81008C16.9638 8.10824 16.8631 8.49094 16.5649 8.66486C16.2668 8.83879 15.8841 8.73808 15.7101 8.43992L11.3351 0.939919C11.2224 0.746614 11.2216 0.50777 11.333 0.313712Z" fill="#313131"/>
<path fill-rule="evenodd" clip-rule="evenodd" d="M16.25 5.625C14.8693 5.625 13.75 6.74429 13.75 8.125C13.75 9.50571 14.8693 10.625 16.25 10.625C17.6307 10.625 18.75 9.50571 18.75 8.125C18.75 6.74429 17.6307 5.625 16.25 5.625ZM12.5 8.125C12.5 6.05393 14.1789 4.375 16.25 4.375C18.3211 4.375 20 6.05393 20 8.125C20 10.1961 18.3211 11.875 16.25 11.875C14.1789 11.875 12.5 10.1961 12.5 8.125Z" fill="#313131"/>
<path fill-rule="evenodd" clip-rule="evenodd" d="M3.75 5.625C2.36929 5.625 1.25 6.74429 1.25 8.125C1.25 9.50571 2.36929 10.625 3.75 10.625C5.13071 10.625 6.25 9.50571 6.25 8.125C6.25 6.74429 5.13071 5.625 3.75 5.625ZM0 8.125C0 6.05393 1.67893 4.375 3.75 4.375C5.82107 4.375 7.5 6.05393 7.5 8.125C7.5 10.1961 5.82107 11.875 3.75 11.875C1.67893 11.875 0 10.1961 0 8.125Z" fill="#313131"/>
<path fill-rule="evenodd" clip-rule="evenodd" d="M3.125 0.625C3.125 0.279822 3.40482 0 3.75 0H5.9375C6.15979 0 6.36536 0.11807 6.47736 0.310081L10.8524 7.81008C11.0263 8.10824 10.9256 8.49094 10.6274 8.66486C10.3293 8.83879 9.94656 8.73808 9.77264 8.43992L5.57852 1.25H3.75C3.40482 1.25 3.125 0.970178 3.125 0.625Z" fill="#313131"/>
<path fill-rule="evenodd" clip-rule="evenodd" d="M6.8936 2.7566C7.01126 2.59535 7.19887 2.5 7.39848 2.5H13.2891C13.6343 2.5 13.9141 2.77982 13.9141 3.125C13.9141 3.47018 13.6343 3.75 13.2891 3.75H7.71613L4.25492 8.4934C4.05146 8.77224 3.66048 8.83334 3.38164 8.62988C3.1028 8.42641 3.0417 8.03543 3.24516 7.7566L6.8936 2.7566Z" fill="#313131"/>
</svg>
