<svg width="20" height="21" viewBox="0 0 20 21" fill="none" xmlns="http://www.w3.org/2000/svg">
<g clip-path="url(#clip0_31_1004)">
<path d="M19.6187 10.4672L16.172 6.99978C16.1005 6.92784 16.0032 6.88743 15.9019 6.88743H14.0166V4.94824C14.0166 4.31822 13.504 3.80566 12.874 3.80566H5.98047C5.77016 3.80566 5.59961 3.97621 5.59961 4.18652C5.59961 4.39683 5.77016 4.56738 5.98047 4.56738H12.874C13.084 4.56738 13.2549 4.73824 13.2549 4.94824V14.2032C13.2549 14.4132 13.084 14.5841 12.874 14.5841H6.09655C5.91508 13.5277 4.99313 12.7211 3.88574 12.7211C2.77836 12.7211 1.85641 13.5277 1.67493 14.5841H1.37207C1.16206 14.5841 0.991211 14.4132 0.991211 14.2032V4.94824C0.991211 4.73824 1.16206 4.56738 1.37207 4.56738H2.85742C3.06773 4.56738 3.23828 4.39683 3.23828 4.18652C3.23828 3.97621 3.06773 3.80566 2.85742 3.80566H1.37207C0.742053 3.80566 0.229492 4.31822 0.229492 4.94824V14.2032C0.229492 14.8332 0.742053 15.3458 1.37207 15.3458H1.67493C1.74668 15.7635 1.93407 16.1419 2.20318 16.447H1.21973C1.00942 16.447 0.838867 16.6175 0.838867 16.8279C0.838867 17.0382 1.00942 17.2087 1.21973 17.2087H8.14356C8.35387 17.2087 8.52442 17.0382 8.52442 16.8279C8.52442 16.6175 8.35387 16.447 8.14356 16.447H5.5683C5.83738 16.1419 6.0248 15.7634 6.09655 15.3458H12.874C13.0156 15.3458 13.1512 15.3197 13.2765 15.2724C13.338 15.7191 13.5313 16.1241 13.8161 16.447H11.6757C11.4654 16.447 11.2949 16.6175 11.2949 16.8279C11.2949 17.0382 11.4654 17.2087 11.6757 17.2087H18.1515C18.3618 17.2087 18.5323 17.0382 18.5323 16.8279C18.5323 16.6175 18.3618 16.447 18.1515 16.447H17.1812C17.4503 16.1419 17.6377 15.7634 17.7095 15.3458H19.3486C19.5589 15.3458 19.7295 15.1752 19.7295 14.9649V10.7357C19.7295 10.6351 19.6897 10.5385 19.6187 10.4672ZM3.88574 16.447C3.06853 16.447 2.40367 15.7821 2.40367 14.9649C2.40367 14.1477 3.06853 13.4828 3.88574 13.4828C4.70295 13.4828 5.36782 14.1477 5.36782 14.9649C5.36782 15.7821 4.70295 16.447 3.88574 16.447ZM15.9626 7.86962L18.9258 10.8506H16.426C16.1705 10.8506 15.9626 10.6427 15.9626 10.3872V7.86962ZM15.4987 16.447C14.6815 16.447 14.0166 15.7821 14.0166 14.9649C14.0166 14.1477 14.6815 13.4828 15.4987 13.4828C16.3159 13.4828 16.9808 14.1477 16.9808 14.9649C16.9808 15.7821 16.3159 16.447 15.4987 16.447ZM18.9678 14.5841H17.7095C17.528 13.5277 16.6061 12.7211 15.4987 12.7211C14.931 12.7211 14.4122 12.9335 14.0166 13.2824V7.64914H15.2009V10.3872C15.2009 11.0627 15.7505 11.6123 16.426 11.6123H18.9678V14.5841Z" fill="#989898"/>
<path d="M10.666 11.5049H10.3589V8.69751H10.6712C10.8307 8.69751 10.9732 8.59822 11.0285 8.44865C11.0837 8.29909 11.04 8.13094 10.9189 8.02731L7.61689 5.2016C7.47437 5.07961 7.26414 5.07961 7.12162 5.2016L3.81964 8.02731C3.69849 8.13098 3.65477 8.29913 3.71003 8.44865C3.76526 8.59822 3.90781 8.69751 4.06728 8.69751H4.37962V11.5049H4.07253C3.86222 11.5049 3.69168 11.6755 3.69168 11.8858C3.69168 12.0961 3.86222 12.2667 4.07253 12.2667H4.76048H6.48951H8.14209H9.97803H10.666C10.8763 12.2667 11.0468 12.0961 11.0468 11.8858C11.0468 11.6755 10.8763 11.5049 10.666 11.5049ZM7.76123 11.5049H6.87037V10.1394H7.76123V11.5049ZM9.59717 11.5049H8.52295V9.75851C8.52295 9.54819 8.3524 9.37765 8.14209 9.37765H6.48951C6.2792 9.37765 6.10865 9.54819 6.10865 9.75851V11.5049H5.14134V8.69751H9.59717V11.5049ZM5.09807 7.93579L7.36925 5.99223L9.64043 7.93579H5.09807Z" fill="#989898"/>
<path d="M9.98212 16.5587C9.91132 16.4879 9.81306 16.4471 9.71289 16.4471C9.61272 16.4471 9.51446 16.4879 9.44362 16.5587C9.37278 16.6296 9.33203 16.7275 9.33203 16.828C9.33203 16.9282 9.37274 17.0264 9.44362 17.0973C9.51446 17.1681 9.61272 17.2089 9.71289 17.2089C9.81306 17.2089 9.91132 17.1681 9.98212 17.0973C10.053 17.0264 10.0938 16.9282 10.0938 16.828C10.0938 16.7278 10.053 16.6296 9.98212 16.5587Z" fill="#989898"/>
<path d="M4.65009 3.91726C4.57929 3.84642 4.48103 3.80566 4.38086 3.80566C4.28069 3.80566 4.18243 3.84638 4.11159 3.91726C4.04075 3.98813 4 4.08636 4 4.18652C4 4.28669 4.04071 4.38495 4.11159 4.45575C4.18243 4.52697 4.28069 4.56738 4.38086 4.56738C4.48103 4.56738 4.57929 4.52697 4.65009 4.45575C4.72097 4.38495 4.76172 4.28669 4.76172 4.18652C4.76172 4.08636 4.72097 3.9881 4.65009 3.91726Z" fill="#989898"/>
</g>
<defs>
<clipPath id="clip0_31_1004">
<rect width="19.5" height="19.5" fill="white" transform="translate(0.228516 0.757202)"/>
</clipPath>
</defs>
</svg>
