<svg width="38" height="38" viewBox="0 0 38 38" fill="none" xmlns="http://www.w3.org/2000/svg">
<path d="M19 0C8.52388 0 0 8.52388 0 19C0 22.6527 1.02363 26.1606 2.964 29.184L0.0855 36.3708C-0.09025 36.8125 0.011875 37.316 0.349125 37.6533C0.57475 37.8789 0.87875 38 1.1875 38C1.33713 38 1.48437 37.9715 1.62925 37.9145L8.816 35.036C11.8394 36.9764 15.3473 38 19 38C29.4761 38 38 29.4761 38 19C38 8.52388 29.4761 0 19 0ZM19 35.625C15.6133 35.625 12.3714 34.6228 9.62825 32.7251C9.42875 32.585 9.19125 32.5137 8.95375 32.5137C8.80412 32.5137 8.6545 32.5422 8.512 32.5992L3.32025 34.6798L5.40075 29.488C5.548 29.1175 5.5005 28.6971 5.27487 28.3718C3.37725 25.6286 2.375 22.3867 2.375 19C2.375 9.8325 9.8325 2.375 19 2.375C28.1675 2.375 35.625 9.8325 35.625 19C35.625 28.1675 28.1675 35.625 19 35.625Z" fill="#313131"/>
</svg>
