<svg width="15" height="15" viewBox="0 0 15 15" fill="none" xmlns="http://www.w3.org/2000/svg">
<path d="M7.25843 0.442871C3.31931 0.442871 0.114258 3.64793 0.114258 7.58705C0.114258 8.96051 0.49915 10.2795 1.22875 11.4163L0.146407 14.1186C0.080323 14.2847 0.118723 14.474 0.245532 14.6008C0.330369 14.6857 0.444676 14.7312 0.560769 14.7312C0.617029 14.7312 0.672397 14.7205 0.726871 14.6991L3.42916 13.6167C4.56597 14.3463 5.88497 14.7312 7.25843 14.7312C11.1976 14.7312 14.4026 11.5262 14.4026 7.58705C14.4026 3.64793 11.1976 0.442871 7.25843 0.442871ZM7.25843 13.8382C5.98498 13.8382 4.76601 13.4613 3.73457 12.7478C3.65956 12.6951 3.57025 12.6683 3.48095 12.6683C3.42469 12.6683 3.36843 12.6791 3.31485 12.7005L1.3627 13.4828L2.14499 11.5306C2.20036 11.3913 2.1825 11.2333 2.09766 11.1109C1.38414 10.0795 1.00728 8.8605 1.00728 7.58705C1.00728 4.13998 3.81137 1.33589 7.25843 1.33589C10.7055 1.33589 13.5096 4.13998 13.5096 7.58705C13.5096 11.0341 10.7055 13.8382 7.25843 13.8382Z" fill="#313131" fill-opacity="0.5"/>
</svg>
