<svg width="23" height="23" viewBox="0 0 23 23" fill="none" xmlns="http://www.w3.org/2000/svg">
<g clip-path="url(#clip0_635_1173)">
<path d="M20.9227 0.992926C20.8435 0.944086 20.7523 0.918091 20.6594 0.918091H5.6463C4.35559 0.918091 3.30554 1.9579 3.30554 3.23226L3.21731 16.1608H0.504152C0.225687 16.1608 0 16.3865 0 16.6649V18.9941C0.00177241 20.7045 1.3878 22.0905 3.09817 22.0925C3.13283 22.0925 3.16769 22.0889 3.20176 22.0818H15.7278C15.8024 22.0871 15.8776 22.0907 15.9534 22.0907C17.6904 22.0875 19.0969 20.6791 19.0975 18.9421V11.3846H22.4958C22.7743 11.3846 22.9999 11.1589 22.9999 10.8804V3.39651C22.9938 2.19304 22.1126 1.17312 20.9227 0.992926ZM1.0083 18.9943V17.1693H12.8094V18.9423C12.8088 19.7322 13.106 20.4932 13.6418 21.0735H3.02924C3.00541 21.0737 2.98178 21.0755 2.95835 21.079C1.86162 21.0044 1.00968 20.0936 1.0083 18.9943ZM18.0892 3.39651V18.9421C18.0882 19.5057 17.8643 20.0457 17.4663 20.4445C17.0852 20.8354 16.5675 21.0637 16.022 21.081C15.9948 21.0763 15.9672 21.0739 15.9395 21.0737H15.7622C14.6641 20.9656 13.825 20.0459 13.8177 18.9425V16.6649C13.8177 16.3867 13.592 16.1608 13.3135 16.1608H4.22562L4.31384 3.23581C4.32113 2.50676 4.91705 1.92088 5.6463 1.92639H18.59C18.2653 2.34764 18.089 2.86459 18.0892 3.39651ZM21.9916 10.3762H19.0975V3.39651C19.1107 2.6066 19.7547 1.97346 20.5446 1.97346C21.3345 1.97346 21.9784 2.6066 21.9916 3.39651V10.3762Z" fill="white"/>
<path d="M6.4729 6.38001H11.2478C11.5262 6.38001 11.7519 6.15432 11.7519 5.87586C11.7519 5.59739 11.5262 5.3717 11.2478 5.3717H6.4729C6.19444 5.3717 5.96875 5.59739 5.96875 5.87586C5.96875 6.15432 6.19444 6.38001 6.4729 6.38001Z" fill="white"/>
<path d="M15.3798 8.97632H6.4729C6.19444 8.97632 5.96875 9.202 5.96875 9.48047C5.96875 9.75874 6.19444 9.98462 6.4729 9.98462H15.3798C15.6583 9.98462 15.884 9.75874 15.884 9.48047C15.884 9.202 15.6583 8.97632 15.3798 8.97632Z" fill="white"/>
<path d="M15.3798 12.5807H6.4729C6.19444 12.5807 5.96875 12.8066 5.96875 13.0848C5.96875 13.3633 6.19444 13.589 6.4729 13.589H15.3798C15.6583 13.589 15.884 13.3633 15.884 13.0848C15.884 12.8066 15.6583 12.5807 15.3798 12.5807Z" fill="white"/>
</g>
<defs>
<clipPath id="clip0_635_1173">
<rect width="23" height="23" fill="white"/>
</clipPath>
</defs>
</svg>
