<svg width="20" height="21" viewBox="0 0 20 21" fill="none" xmlns="http://www.w3.org/2000/svg">
<g clip-path="url(#clip0_77_8302)">
<path d="M16.2719 10.6884C15.8811 10.6884 15.5644 11.0052 15.5644 11.3959V18.4706C15.5644 18.8614 15.2476 19.1781 14.8569 19.1781H2.12242C1.73168 19.1781 1.41493 18.8614 1.41493 18.4706V4.32115C1.41493 3.93041 1.73168 3.61366 2.12242 3.61366H10.6121C11.0028 3.61366 11.3196 3.29692 11.3196 2.90618C11.3196 2.51544 11.0028 2.19873 10.6121 2.19873H2.12242C0.950239 2.19873 0 3.14897 0 4.32115V18.4706C0 19.6428 0.950239 20.593 2.12242 20.593H14.8569C16.0291 20.593 16.9794 19.6428 16.9794 18.4706V11.3959C16.9794 11.0052 16.6626 10.6884 16.2719 10.6884Z" fill="#58D7FF"/>
<path d="M19.0203 1.57753C18.5123 1.06947 17.8233 0.784108 17.1049 0.784191C16.3861 0.782118 15.6963 1.06798 15.1898 1.57798L5.87091 10.8961C5.7936 10.974 5.73527 11.0686 5.70041 11.1727L4.28548 15.4175C4.16199 15.7883 4.36241 16.1889 4.73313 16.3123C4.80505 16.3363 4.88038 16.3485 4.95615 16.3486C5.0321 16.3485 5.10758 16.3363 5.17971 16.3125L9.42455 14.8976C9.52881 14.8628 9.62353 14.8041 9.70117 14.7264L19.02 5.40755C20.0777 4.34998 20.0778 2.63522 19.0203 1.57753ZM18.0197 4.40785L8.82248 13.605L6.07465 14.5226L6.98941 11.7783L16.1901 2.58116C16.6959 2.07634 17.5152 2.07717 18.0201 2.58298C18.2612 2.82462 18.3971 3.15173 18.3981 3.4931C18.399 3.83629 18.2627 4.1656 18.0197 4.40785Z" fill="#58D7FF"/>
</g>
<defs>
<clipPath id="clip0_77_8302">
<rect width="19.8095" height="19.8095" fill="white" transform="translate(0 0.783691)"/>
</clipPath>
</defs>
</svg>
