<svg width="42" height="42" viewBox="0 0 42 42" fill="none" xmlns="http://www.w3.org/2000/svg">
<g clip-path="url(#clip0_31_823)">
<path fill-rule="evenodd" clip-rule="evenodd" d="M21 0C32.598 0 42 9.40201 42 21C42 32.598 32.598 42 21 42C9.40201 42 0 32.598 0 21C0 9.40201 9.40201 0 21 0ZM34.3301 29.1409V13.5334L26.5259 21.3371L34.3301 29.1409ZM9.33712 29.4588H32.6634L25.5342 22.3296L22.8171 25.0464C22.6853 25.1777 22.5068 25.2515 22.3208 25.2514H19.6794C19.5872 25.2515 19.496 25.2335 19.4108 25.1983C19.3256 25.1631 19.2482 25.1115 19.183 25.0464L16.466 22.3296L9.3368 29.4588H9.33712ZM7.66992 13.5329V29.1413L15.4741 21.3371L7.66992 13.5329ZM33.338 12.5412H8.6625L19.97 23.8487H22.0304L33.338 12.5412Z" fill="#58D7FF"/>
</g>
<defs>
<clipPath id="clip0_31_823">
<rect width="42" height="42" fill="white"/>
</clipPath>
</defs>
</svg>
