<svg width="17" height="12" viewBox="0 0 17 12" fill="none" xmlns="http://www.w3.org/2000/svg">
<path d="M16.8194 5.05037C15.8808 3.60184 14.6661 2.36935 13.3025 1.49103C11.7903 0.513537 10.1257 0 8.48945 0C6.98425 0 5.50385 0.428538 4.0872 1.27853C2.64575 2.14269 1.33889 3.40705 0.202021 5.03621C-0.0600602 5.41516 -0.0671435 5.90745 0.180771 6.29349C1.11576 7.75618 2.31992 8.98867 3.6622 9.85991C5.17094 10.8374 6.79655 11.3332 8.48945 11.3332C10.1434 11.3332 11.8115 10.8232 13.3132 9.85637C14.6767 8.97805 15.8879 7.74202 16.8194 6.28286C17.0602 5.90745 17.0602 5.42579 16.8194 5.05037V5.05037ZM15.8667 5.67016C14.0534 8.50701 11.298 10.1999 8.48945 10.1999C5.69156 10.1999 2.94325 8.51055 1.13347 5.68433C3.18054 2.74831 5.79072 1.13332 8.48945 1.13332C11.2732 1.13332 14.0321 2.82623 15.8667 5.66308V5.67016Z" fill="#909090"/>
<path d="M8.50056 2.2666C6.62703 2.2666 5.10059 3.79305 5.10059 5.66657C5.10059 7.5401 6.62703 9.06654 8.50056 9.06654C10.3741 9.06654 11.9005 7.5401 11.9005 5.66657C11.9005 3.79305 10.3741 2.2666 8.50056 2.2666ZM8.50056 7.93322C7.25036 7.93322 6.23391 6.91677 6.23391 5.66657C6.23391 4.41637 7.25036 3.39993 8.50056 3.39993C9.75075 3.39993 10.7672 4.41637 10.7672 5.66657C10.7672 6.91677 9.75075 7.93322 8.50056 7.93322Z" fill="#909090"/>
</svg>
