<svg width="20" height="20" viewBox="0 0 20 20" fill="none" xmlns="http://www.w3.org/2000/svg">
<g clip-path="url(#clip0_199_70)">
<path d="M3.03294 18.3099C3.05446 18.3371 3.08198 18.359 3.11334 18.3739C3.1447 18.3887 3.17907 18.3961 3.21377 18.3955H12.4337C12.4684 18.3962 12.5028 18.3887 12.5342 18.3739C12.5655 18.359 12.593 18.3372 12.6146 18.3099C12.6358 18.284 12.6506 18.2534 12.6576 18.2206C12.6646 18.1878 12.6637 18.1538 12.6549 18.1215L12.2768 16.6817H12.432C12.5582 16.6817 12.6445 16.5647 12.6445 16.4385V15.567C12.6462 15.4843 12.6314 15.402 12.6011 15.3251C12.5707 15.2481 12.5253 15.1779 12.4676 15.1186C12.4099 15.0593 12.341 15.0121 12.2648 14.9797C12.1887 14.9472 12.1069 14.9303 12.0241 14.9297H8.91211V14.0876C8.91257 14.0581 8.90711 14.0288 8.89605 14.0014C8.88499 13.9741 8.86855 13.9492 8.84771 13.9283C8.82688 13.9074 8.80206 13.8908 8.77473 13.8797C8.74739 13.8685 8.7181 13.863 8.68858 13.8633H8.41699V5.02738H8.46007C8.52109 5.02509 8.57876 4.99886 8.62059 4.95437C8.66243 4.90987 8.68506 4.8507 8.68359 4.78965V1.00513C8.68359 0.777854 8.59331 0.55989 8.4326 0.399183C8.2719 0.238477 8.05393 0.148193 7.82666 0.148193C7.59939 0.148193 7.38142 0.238477 7.22072 0.399183C7.06001 0.55989 6.96973 0.777854 6.96973 1.00513V4.78965C6.96838 4.81956 6.97294 4.84945 6.98316 4.87759C6.99337 4.90574 7.00904 4.93159 7.02926 4.95368C7.04948 4.97576 7.07386 4.99364 7.101 5.00628C7.12814 5.01893 7.15751 5.0261 7.18743 5.02738H7.19824V13.8633H6.95891C6.92969 13.8631 6.90072 13.8687 6.87375 13.88C6.84679 13.8913 6.82239 13.9079 6.80204 13.9289C6.78169 13.9498 6.7658 13.9747 6.75534 14.002C6.74489 14.0293 6.74008 14.0584 6.74121 14.0876V14.9297H3.62334C3.2725 14.9297 2.9707 15.2162 2.9707 15.567V16.4385C2.97382 16.5023 3.00067 16.5626 3.04597 16.6076C3.09128 16.6526 3.15176 16.679 3.21556 16.6817H3.37061L2.9926 18.1213C2.98377 18.1537 2.98282 18.1877 2.98984 18.2205C2.99686 18.2533 3.01163 18.284 3.03294 18.3099V18.3099ZM7.42676 4.57035V1.75199H8.22656V4.57035H7.42676ZM7.82666 0.597303C7.87978 0.597518 7.93234 0.608272 7.98128 0.628942C8.03022 0.649611 8.07457 0.679786 8.11176 0.717717C8.14896 0.755649 8.17826 0.800584 8.19796 0.849919C8.21767 0.899254 8.22739 0.952008 8.22656 1.00513V1.29496H7.42676V1.00513C7.42593 0.952008 7.43565 0.899254 7.45536 0.849919C7.47506 0.800584 7.50436 0.755649 7.54156 0.717717C7.57875 0.679786 7.6231 0.649611 7.67204 0.628942C7.72098 0.608272 7.77354 0.597518 7.82666 0.597303V0.597303ZM7.65527 5.02738H7.95996V13.8633H7.65527V5.02738ZM7.19824 14.3203H8.45508V14.9297H7.19824V14.3203ZM3.42773 15.567C3.42773 15.468 3.52451 15.3868 3.62334 15.3868H12.0241C12.1232 15.3868 12.1875 15.4681 12.1875 15.567V16.2246H3.42773V15.567ZM11.8045 16.6817L12.138 17.9385H3.50958L3.84302 16.6817H11.8045Z" fill="#989898"/>
<path d="M14.852 18.2432H15.072C15.1326 18.2432 15.1907 18.2191 15.2336 18.1762C15.2764 18.1334 15.3005 18.0753 15.3005 18.0146C15.3005 17.954 15.2764 17.8959 15.2336 17.8531C15.1907 17.8102 15.1326 17.7861 15.072 17.7861H14.852C14.6747 17.7861 14.5304 17.6587 14.5304 17.4814C14.5304 17.3042 14.6747 17.1768 14.852 17.1768H15.1862C15.4135 17.1768 15.6314 17.267 15.7921 17.4277C15.9528 17.5885 16.0431 17.8064 16.0431 18.0337C16.0431 18.261 15.9528 18.4789 15.7921 18.6396C15.6314 18.8003 15.4135 18.8906 15.1862 18.8906H11.7334C11.6728 18.8906 11.6147 18.9147 11.5718 18.9576C11.529 19.0004 11.5049 19.0585 11.5049 19.1191C11.5049 19.1797 11.529 19.2379 11.5718 19.2807C11.6147 19.3236 11.6728 19.3477 11.7334 19.3477H15.1862C15.5347 19.3477 15.8689 19.2092 16.1153 18.9628C16.3617 18.7164 16.5002 18.3822 16.5002 18.0337C16.5002 17.6852 16.3617 17.351 16.1153 17.1046C15.8689 16.8582 15.5347 16.7197 15.1862 16.7197H14.852C14.65 16.7197 14.4562 16.8 14.3134 16.9428C14.1705 17.0857 14.0903 17.2794 14.0903 17.4814C14.0903 17.6835 14.1705 17.8772 14.3134 18.0201C14.4562 18.1629 14.65 18.2432 14.852 18.2432V18.2432Z" fill="#989898"/>
<path d="M10.4639 19.3477C10.5245 19.3477 10.5826 19.3236 10.6255 19.2807C10.6683 19.2379 10.6924 19.1797 10.6924 19.1191C10.6924 19.0585 10.6683 19.0004 10.6255 18.9576C10.5826 18.9147 10.5245 18.8906 10.4639 18.8906H9.47363C9.41303 18.8906 9.3549 18.9147 9.31205 18.9576C9.26919 19.0004 9.24512 19.0585 9.24512 19.1191C9.24512 19.1797 9.26919 19.2379 9.31205 19.2807C9.3549 19.3236 9.41303 19.3477 9.47363 19.3477H10.4639Z" fill="#989898"/>
<path d="M7.69727 19.3477C7.75787 19.3477 7.816 19.3236 7.85885 19.2807C7.90171 19.2379 7.92578 19.1797 7.92578 19.1191C7.92578 19.0585 7.90171 19.0004 7.85885 18.9576C7.816 18.9147 7.75787 18.8906 7.69727 18.8906H6.70703C6.64643 18.8906 6.5883 18.9147 6.54545 18.9576C6.50259 19.0004 6.47852 19.0585 6.47852 19.1191C6.47852 19.1797 6.50259 19.2379 6.54545 19.2807C6.5883 19.3236 6.64643 19.3477 6.70703 19.3477H7.69727Z" fill="#989898"/>
</g>
<defs>
<clipPath id="clip0_199_70">
<rect width="19.5" height="19.5" fill="white"/>
</clipPath>
</defs>
</svg>
