<svg width="17" height="15" viewBox="0 0 17 15" fill="none" xmlns="http://www.w3.org/2000/svg">
<path fill-rule="evenodd" clip-rule="evenodd" d="M0 3.92296C0 3.20074 0.585474 2.61526 1.30769 2.61526H13.0769C13.7991 2.61526 14.3846 3.20074 14.3846 3.92296V13.0768C14.3846 13.799 13.7991 14.3845 13.0769 14.3845H1.30769C0.585474 14.3845 0 13.799 0 13.0768V3.92296ZM13.0769 3.92296H1.30769V13.0768H13.0769V3.92296Z" fill="#313131"/>
<path fill-rule="evenodd" clip-rule="evenodd" d="M2.61514 0.65377C2.61514 0.292661 2.90788 -7.62939e-05 3.26899 -7.62939e-05H15.6921C16.0389 -7.62939e-05 16.3715 0.137698 16.6167 0.382938C16.862 0.628179 16.9998 0.960796 16.9998 1.30762V11.1153C16.9998 11.4764 16.707 11.7692 16.3459 11.7692C15.9848 11.7692 15.6921 11.4764 15.6921 11.1153V1.30762H3.26899C2.90788 1.30762 2.61514 1.01488 2.61514 0.65377Z" fill="#313131"/>
</svg>
