<svg width="20" height="20" viewBox="0 0 20 20" fill="none" xmlns="http://www.w3.org/2000/svg">
<g clip-path="url(#clip0_31_1058)">
<path d="M19.4233 5.70976L10.0542 0.32182C9.93658 0.254218 9.79197 0.254218 9.6744 0.32182L0.305259 5.70976C0.187116 5.77771 0.114258 5.90362 0.114258 6.03993V19.3903C0.114258 19.6006 0.284769 19.7711 0.495117 19.7711H19.2334C19.4437 19.7711 19.6143 19.6006 19.6143 19.3903V6.03993C19.6143 5.90362 19.5414 5.77771 19.4233 5.70976ZM6.3359 18.6035C6.3359 18.8273 6.15377 19.0094 5.9299 19.0094C5.70604 19.0094 5.52391 18.8273 5.52391 18.6034V17.9887H6.3359V18.6035ZM14.2046 18.6035C14.2046 18.8273 14.0225 19.0094 13.7986 19.0094C13.5747 19.0094 13.3926 18.8273 13.3926 18.6034V17.9887H14.2046V18.6035V18.6035ZM14.5855 17.227H13.0118H11.14C10.9296 17.227 10.7591 17.3975 10.7591 17.6078C10.7591 17.8182 10.9296 17.9887 11.14 17.9887H12.6309V18.6035C12.6309 18.7462 12.6567 18.8829 12.7038 19.0094H7.02472C7.0718 18.8829 7.09762 18.7462 7.09762 18.6035V17.9887H8.38805C8.5984 17.9887 8.76891 17.8182 8.76891 17.6078C8.76891 17.3975 8.5984 17.227 8.38805 17.227H6.71676H5.14305H4.83691C4.62691 17.227 4.45605 17.0561 4.45605 16.8461V15.5043C4.45605 15.4106 4.49045 15.3204 4.55291 15.2506L5.51641 14.1725H14.2121L15.1756 15.2506C15.2381 15.3204 15.2725 15.4106 15.2725 15.5043V16.8461C15.2725 17.0561 15.1016 17.227 14.8916 17.227H14.5855ZM11.2344 12.7678C11.3088 12.8422 11.4063 12.8794 11.5037 12.8794C11.6012 12.8794 11.6987 12.8422 11.773 12.7678L13.3364 11.2045C13.4162 11.343 13.4766 11.4956 13.5134 11.6593L13.9067 13.4108H8.79058L11.7945 10.4069H11.9485C12.2637 10.4069 12.5592 10.4967 12.8089 10.6547L11.2344 12.2292C11.0857 12.3779 11.0857 12.6191 11.2344 12.7678ZM7.71332 13.4108H5.82193L6.21574 11.6589C6.38145 10.9217 7.02491 10.4069 7.7805 10.4069H10.7172L7.71332 13.4108ZM18.8525 19.0094H17.5576V7.81214C17.5576 7.60183 17.3871 7.43128 17.1768 7.43128H15.9199C15.7096 7.43128 15.5391 7.60183 15.5391 7.81214C15.5391 8.02245 15.7096 8.193 15.9199 8.193H16.7959V19.0094H14.8934C14.9405 18.8829 14.9663 18.7461 14.9663 18.6034V17.986C15.5616 17.9473 16.0342 17.451 16.0342 16.8461V15.5043C16.0342 15.2231 15.931 14.9527 15.7435 14.7429L14.7325 13.6116L14.2566 11.4924C14.0123 10.4048 13.0632 9.64518 11.9485 9.64518H7.78054C6.66607 9.64518 5.717 10.4046 5.47261 11.4919L4.99611 13.6116L3.98501 14.7429C3.79755 14.9526 3.69434 15.223 3.69434 15.5043V16.8461C3.69434 17.451 4.16691 17.9473 4.76219 17.986V18.6035C4.76219 18.7462 4.78801 18.8829 4.83509 19.0094H2.93262V8.193H12.7588C12.9691 8.193 13.1396 8.02245 13.1396 7.81214C13.1396 7.60183 12.9691 7.43128 12.7588 7.43128H2.55176C2.34141 7.43128 2.1709 7.60183 2.1709 7.81214V19.0094H0.875977V6.26026L9.86426 1.09138L18.8525 6.26029V19.0094Z" fill="#989898"/>
<path d="M14.651 7.54308C14.5806 7.47224 14.4823 7.43149 14.3818 7.43149C14.2816 7.43149 14.1833 7.4722 14.1125 7.54308C14.0417 7.61392 14.0009 7.71218 14.0009 7.81235C14.0009 7.91251 14.0417 8.01078 14.1125 8.08158C14.1837 8.15245 14.2816 8.19321 14.3818 8.19321C14.4823 8.19321 14.5802 8.15245 14.651 8.08158C14.7223 8.01078 14.7626 7.91251 14.7626 7.81235C14.7626 7.71218 14.7223 7.61392 14.651 7.54308Z" fill="#989898"/>
<path d="M9.86914 3.22168C8.98711 3.22168 8.26953 3.93926 8.26953 4.82129C8.26953 5.70332 8.98711 6.4209 9.86914 6.4209C10.7512 6.4209 11.4688 5.70332 11.4688 4.82129C11.4688 3.93926 10.7512 3.22168 9.86914 3.22168ZM9.86914 5.65918C9.40712 5.65918 9.03125 5.28331 9.03125 4.82129C9.03125 4.35927 9.40712 3.9834 9.86914 3.9834C10.3312 3.9834 10.707 4.35927 10.707 4.82129C10.707 5.28331 10.3312 5.65918 9.86914 5.65918Z" fill="#989898"/>
<path d="M10.1335 17.3389C10.0627 17.268 9.96442 17.2273 9.86426 17.2273C9.76409 17.2273 9.66583 17.268 9.59499 17.3389C9.52415 17.4097 9.4834 17.5079 9.4834 17.6081C9.4834 17.7083 9.52415 17.8066 9.59499 17.8774C9.66583 17.9482 9.76409 17.989 9.86426 17.989C9.96442 17.989 10.0627 17.9482 10.1335 17.8774C10.2044 17.8066 10.2451 17.7083 10.2451 17.6081C10.2451 17.5079 10.2044 17.4097 10.1335 17.3389Z" fill="#989898"/>
<path d="M12.0352 15.2391H7.70312C7.49278 15.2391 7.32227 15.4097 7.32227 15.62C7.32227 15.8303 7.49278 16.0008 7.70312 16.0008H12.0352C12.2456 16.0008 12.4161 15.8303 12.4161 15.62C12.4161 15.4097 12.2456 15.2391 12.0352 15.2391Z" fill="#989898"/>
<path d="M5.98216 15.3507C5.91132 15.2799 5.81306 15.2391 5.71289 15.2391C5.61272 15.2391 5.51446 15.2798 5.44362 15.3507C5.37278 15.4215 5.33203 15.5194 5.33203 15.62C5.33203 15.7201 5.37278 15.8184 5.44362 15.8892C5.51446 15.9601 5.61272 16.0008 5.71289 16.0008C5.81306 16.0008 5.91132 15.9601 5.98216 15.8892C6.053 15.8184 6.09375 15.7201 6.09375 15.62C6.09375 15.5198 6.053 15.4215 5.98216 15.3507Z" fill="#989898"/>
<path d="M14.3992 15.3507C14.3283 15.2799 14.23 15.2391 14.1299 15.2391C14.0297 15.2391 13.9315 15.2798 13.8606 15.3507C13.7898 15.4215 13.749 15.5198 13.749 15.62C13.749 15.7201 13.7898 15.8184 13.8606 15.8892C13.9315 15.9601 14.0297 16.0008 14.1299 16.0008C14.23 16.0008 14.3283 15.9601 14.3992 15.8892C14.47 15.8184 14.5107 15.7201 14.5107 15.62C14.5107 15.5198 14.47 15.4215 14.3992 15.3507Z" fill="#989898"/>
</g>
<defs>
<clipPath id="clip0_31_1058">
<rect width="19.5" height="19.5" fill="white" transform="translate(0.114258 0.271362)"/>
</clipPath>
</defs>
</svg>
