<svg width="10" height="10" viewBox="0 0 10 10" fill="none" xmlns="http://www.w3.org/2000/svg">
<g clip-path="url(#clip0_117_263)">
<path d="M4.73538 0C2.77657 0 1.18359 1.59298 1.18359 3.55179C1.18359 6.01377 4.38967 9.24826 4.52582 9.385C4.58384 9.44242 4.65961 9.47143 4.73538 9.47143C4.81115 9.47143 4.88692 9.44242 4.94494 9.385C5.08109 9.24826 8.28717 6.01377 8.28717 3.55179C8.28717 1.59298 6.69419 0 4.73538 0ZM4.73538 8.74746C4.02857 7.99093 1.77556 5.43246 1.77556 3.55179C1.77556 1.91974 3.10333 0.591964 4.73538 0.591964C6.36742 0.591964 7.6952 1.91974 7.6952 3.55179C7.6952 5.43068 5.44218 7.99093 4.73538 8.74746Z" fill="#C7C7C7"/>
<path d="M4.73463 1.77594C3.75552 1.77594 2.95874 2.57272 2.95874 3.55183C2.95874 4.53094 3.75552 5.32773 4.73463 5.32773C5.71374 5.32773 6.51053 4.53094 6.51053 3.55183C6.51053 2.57272 5.71374 1.77594 4.73463 1.77594ZM4.73463 4.73576C4.0817 4.73576 3.5507 4.20477 3.5507 3.55183C3.5507 2.8989 4.0817 2.3679 4.73463 2.3679C5.38757 2.3679 5.91856 2.8989 5.91856 3.55183C5.91856 4.20477 5.38757 4.73576 4.73463 4.73576Z" fill="#C7C7C7"/>
</g>
<defs>
<clipPath id="clip0_117_263">
<rect width="9.47143" height="9.47143" fill="white"/>
</clipPath>
</defs>
</svg>
