<svg width="31" height="31" viewBox="0 0 31 31" fill="none" xmlns="http://www.w3.org/2000/svg">
<g clip-path="url(#clip0_31_813)">
<path d="M30.9737 15.4865C30.9737 24.0395 24.0403 30.9728 15.4873 30.9728C6.93434 30.9728 0.000976562 24.0395 0.000976562 15.4865C0.000976562 6.93349 6.93434 0.00012207 15.4873 0.00012207C24.0403 0.00012207 30.9737 6.93349 30.9737 15.4865Z" fill="#58D7FF"/>
<path d="M15.4881 18.9542C12.2422 18.9542 9.60156 16.3135 9.60156 13.0675C9.60156 9.82159 12.2422 7.18091 15.4881 7.18091C18.734 7.18091 21.3747 9.82159 21.3747 13.0675C21.3747 13.6436 21.2915 14.2131 21.1275 14.7606C20.9836 15.2407 20.4776 15.5132 19.9977 15.3693C19.5175 15.2254 19.2451 14.7194 19.389 14.2395C19.5024 13.8612 19.5598 13.4668 19.5598 13.0675C19.5598 10.8223 17.7332 8.99572 15.4881 8.99572C13.2428 8.99572 11.4161 10.8223 11.4161 13.0675C11.4161 15.3128 13.2428 17.1394 15.4881 17.1394C15.8681 17.1394 16.2443 17.0872 16.6056 16.9844C17.0879 16.8471 17.5896 17.1267 17.7268 17.6087C17.8641 18.0905 17.5844 18.5927 17.1025 18.7297C16.5796 18.8786 16.0363 18.9542 15.4881 18.9542V18.9542Z" fill="white"/>
<path d="M15.7742 27.5849H15.2052C14.894 27.5849 14.6045 27.4254 14.4382 27.1624C13.3966 25.5146 12.0938 24.0876 10.8336 22.7078C9.55119 21.3032 8.33967 19.9766 7.40816 18.4579C6.3344 16.7067 5.81146 14.9405 5.80957 13.0584C5.81571 7.72479 10.1583 3.38745 15.4897 3.38745C20.8212 3.38745 25.1637 7.72479 25.1699 13.0563C25.168 14.9405 24.6451 16.7067 23.5713 18.4577C22.6398 19.9766 21.4283 21.3032 20.1458 22.7078C18.8856 24.0876 17.5829 25.5144 16.5413 27.1624C16.3749 27.4254 16.0854 27.5849 15.7742 27.5849ZM15.4897 5.20226C11.1578 5.20226 7.62934 8.72648 7.62438 13.0584C7.62769 16.5056 9.73433 18.8126 12.1739 21.484C13.3046 22.7222 14.4684 23.9971 15.4897 25.4657C16.5108 23.9971 17.6748 22.7222 18.8055 21.484C21.2449 18.8126 23.3515 16.5056 23.3551 13.0565C23.3501 8.72648 19.8216 5.20226 15.4897 5.20226Z" fill="white"/>
</g>
<defs>
<clipPath id="clip0_31_813">
<rect width="30.9727" height="30.9727" fill="white"/>
</clipPath>
</defs>
</svg>
