<svg width="10" height="10" viewBox="0 0 10 10" fill="none" xmlns="http://www.w3.org/2000/svg">
<g clip-path="url(#clip0_31_1108)">
<path d="M4.73547 0C2.77666 0 1.18369 1.59298 1.18369 3.55179C1.18369 6.01377 4.38976 9.24826 4.52592 9.385C4.58393 9.44242 4.6597 9.47143 4.73547 9.47143C4.81124 9.47143 4.88701 9.44242 4.94503 9.385C5.08118 9.24826 8.28726 6.01377 8.28726 3.55179C8.28726 1.59298 6.69428 0 4.73547 0ZM4.73547 8.74746C4.02867 7.99093 1.77565 5.43246 1.77565 3.55179C1.77565 1.91974 3.10343 0.591964 4.73547 0.591964C6.36752 0.591964 7.69529 1.91974 7.69529 3.55179C7.69529 5.43068 5.44228 7.99093 4.73547 8.74746Z" fill="#C7C7C7"/>
<path d="M4.73469 1.77594C3.75559 1.77594 2.9588 2.57272 2.9588 3.55183C2.9588 4.53094 3.75559 5.32773 4.73469 5.32773C5.7138 5.32773 6.51059 4.53094 6.51059 3.55183C6.51059 2.57272 5.7138 1.77594 4.73469 1.77594ZM4.73469 4.73576C4.08176 4.73576 3.55077 4.20477 3.55077 3.55183C3.55077 2.8989 4.08176 2.3679 4.73469 2.3679C5.38763 2.3679 5.91862 2.8989 5.91862 3.55183C5.91862 4.20477 5.38763 4.73576 4.73469 4.73576Z" fill="#C7C7C7"/>
</g>
<defs>
<clipPath id="clip0_31_1108">
<rect width="9.47143" height="9.47143" fill="white"/>
</clipPath>
</defs>
</svg>
