<svg width="17" height="16" viewBox="0 0 17 16" fill="none" xmlns="http://www.w3.org/2000/svg">
<path fill-rule="evenodd" clip-rule="evenodd" d="M2.31545 3.06168H14.6846V3.67401L14.6875 3.06168C14.987 3.06309 15.2757 3.17351 15.4997 3.37231C15.7237 3.5711 15.8676 3.84467 15.9046 4.14187L15.9056 4.14993L16.9923 13.9459C16.9923 13.946 16.9922 13.9458 16.9923 13.9459C17.0115 14.1165 16.9947 14.2896 16.9429 14.4533C16.8911 14.6171 16.8053 14.7682 16.6913 14.8967C16.5772 15.0252 16.4374 15.1282 16.2809 15.1992C16.1244 15.2701 15.9547 15.3073 15.7829 15.3083L15.7791 15.3084H1.21714C1.04532 15.3073 0.87565 15.2701 0.719153 15.1992C0.562655 15.1282 0.422832 15.0252 0.308772 14.8967C0.194713 14.7682 0.108967 14.6171 0.0571097 14.4533C0.00534101 14.2898 -0.0114982 14.1172 0.00767873 13.9468C0.00771147 13.9465 0.00774432 13.9462 0.00777728 13.9459L1.09541 4.14186C1.13238 3.84466 1.27637 3.5711 1.50037 3.37231C1.72436 3.17351 2.01309 3.06309 2.31257 3.06168L2.31545 3.06168ZM14.682 4.28634H2.31804C2.31628 4.28642 2.3146 4.2871 2.31328 4.28827C2.31209 4.28932 2.31127 4.29071 2.31091 4.29225L1.22467 14.0837H15.7754L14.6891 4.29225C14.6888 4.29071 14.6879 4.28932 14.6868 4.28827C14.6854 4.28709 14.6838 4.28642 14.682 4.28634Z" fill="#313131"/>
<path fill-rule="evenodd" clip-rule="evenodd" d="M8.49822 1.22467C7.84862 1.22467 7.22562 1.48272 6.76628 1.94206C6.30694 2.4014 6.04889 3.0244 6.04889 3.674V6.12334C6.04889 6.46152 5.77474 6.73567 5.43655 6.73567C5.09837 6.73567 4.82422 6.46152 4.82422 6.12334V3.674C4.82422 2.6996 5.2113 1.7651 5.90031 1.07609C6.58932 0.387081 7.52381 0 8.49822 0C9.47263 0 10.4071 0.387081 11.0961 1.07609C11.7851 1.7651 12.1722 2.6996 12.1722 3.674V6.12334C12.1722 6.46152 11.8981 6.73567 11.5599 6.73567C11.2217 6.73567 10.9476 6.46152 10.9476 6.12334V3.674C10.9476 3.0244 10.6895 2.4014 10.2302 1.94206C9.77082 1.48272 9.14782 1.22467 8.49822 1.22467Z" fill="#313131"/>
</svg>
