<svg width="23" height="23" viewBox="0 0 23 23" fill="none" xmlns="http://www.w3.org/2000/svg">
<g clip-path="url(#clip0_31_1025)">
<path d="M6.13364 7.38386C6.13364 8.18315 6.78158 8.83113 7.58091 8.83113C8.38024 8.83113 9.02818 8.18319 9.02818 7.38386C9.02818 6.58452 8.38024 5.93658 7.58091 5.93658C6.78158 5.93658 6.13364 6.58452 6.13364 7.38386V7.38386ZM8.30455 7.38386C8.30455 7.7835 7.98055 8.10749 7.58091 8.10749C7.18126 8.10749 6.85727 7.7835 6.85727 7.38386C6.85727 6.98421 7.18126 6.66022 7.58091 6.66022C7.98055 6.66022 8.30455 6.98417 8.30455 7.38386Z" fill="#989898"/>
<path d="M7.54015 12.809C7.69473 13.0475 7.87005 13.2718 8.06407 13.4794C8.32772 13.7465 8.6874 13.8968 9.06269 13.8966H9.06484C9.43888 13.8978 9.79784 13.7493 10.0616 13.4841C10.44 13.1007 10.5679 12.5357 10.3916 12.0267C12.7102 10.6241 13.6394 7.7266 12.5691 5.23713C11.4987 2.74766 8.75663 1.42867 6.14357 2.14636C3.53052 2.86405 1.84685 5.39869 2.1983 8.08559C2.54975 10.7725 4.82864 12.7889 7.53834 12.8105L7.54015 12.809ZM9.55006 12.9729C9.42155 13.1017 9.24684 13.1738 9.06484 13.173C8.88117 13.173 8.70525 13.0991 8.57674 12.9678C7.93712 12.1611 7.38773 11.2866 6.93842 10.3602C7.86526 10.8107 8.74128 11.3591 9.55144 11.996C9.81969 12.2666 9.81904 12.703 9.55006 12.9729V12.9729ZM7.58141 2.68033C9.69675 2.68115 11.5513 4.09402 12.1138 6.13319C12.6763 8.17237 11.8083 10.3362 9.99255 11.4214C9.09916 10.7287 8.13628 10.1305 7.11938 9.63658C6.85975 9.4976 6.53973 9.54498 6.33148 9.75323C6.12323 9.96148 6.07585 10.2815 6.21483 10.5411C6.46808 11.0202 6.76694 11.5604 7.06399 12.0575C4.58789 11.7765 2.76076 9.613 2.89805 7.12478C3.03535 4.63656 5.08944 2.68727 7.58141 2.68033V2.68033Z" fill="#989898"/>
<path d="M7.58139 4.12765C7.78123 4.12765 7.94318 3.96565 7.94318 3.76585C7.94318 3.56605 7.78119 3.40405 7.58139 3.40405C5.3844 3.40664 3.604 5.18704 3.60141 7.38403C3.60141 7.58387 3.76341 7.74583 3.96321 7.74583C4.16301 7.74583 4.325 7.58383 4.325 7.38403C4.32703 5.58638 5.78379 4.12963 7.58139 4.12765Z" fill="#989898"/>
<path d="M19.0559 6.80969L14.8172 11.048V1.95667C14.8172 1.15738 14.1693 0.509399 13.3699 0.509399H1.79185C0.992515 0.509399 0.344574 1.15738 0.344574 1.95667V19.3238C0.344574 20.1231 0.992515 20.7711 1.79185 20.7711H8.2506C8.91471 21.4021 9.70943 21.8794 10.5785 22.1691C11.2036 22.3534 11.8628 22.0116 12.0725 21.3945L12.2845 20.7711H13.3699C14.1692 20.7711 14.8172 20.1231 14.8172 19.3238V17.2253C15.0661 16.94 15.0502 16.5103 14.781 16.244L14.6873 16.1503L21.543 9.29679C21.9962 8.85434 22.1765 8.20235 22.015 7.58993C21.8535 6.97751 21.3752 6.49919 20.7628 6.33772C20.1503 6.17624 19.4983 6.35651 19.0559 6.80969V6.80969ZM1.06821 19.3238V1.95667C1.06821 1.55703 1.3922 1.23304 1.79185 1.23304H13.3699C13.7696 1.23304 14.0936 1.55703 14.0936 1.95667V11.7716L12.2017 13.6632L12.1079 13.5699C11.8254 13.2874 11.3673 13.2874 11.0847 13.5699L10.5514 14.1029C10.2907 14.3663 10.2712 14.7841 10.5062 15.0707L8.64357 15.7057H3.60092C3.00143 15.7057 2.51548 16.1917 2.51548 16.7911V17.5147C2.51548 18.1142 3.00147 18.6002 3.60092 18.6002H6.51788C6.79423 19.1228 7.13456 19.6089 7.53098 20.0474H1.79185C1.3922 20.0474 1.06821 19.7235 1.06821 19.3238V19.3238ZM14.2709 16.7549L13.7383 17.2883L11.0638 14.6137L11.5971 14.0815L14.2709 16.7549ZM6.18285 17.7734C6.19225 17.8056 6.20565 17.8425 6.21652 17.8765H3.60092C3.40107 17.8765 3.23912 17.7145 3.23912 17.5147V16.7911C3.23912 16.5913 3.40111 16.4293 3.60092 16.4293H6.66875C6.23109 16.7235 6.03447 17.2674 6.18285 17.7734V17.7734ZM11.3875 21.1608C11.3034 21.4117 11.0353 21.5505 10.7818 21.4745C10.567 21.4092 10.358 21.3261 10.157 21.2259L10.9458 19.8666C11.0186 19.7544 11.0236 19.6112 10.9588 19.4943C10.8941 19.3773 10.7701 19.3056 10.6364 19.3078C10.5027 19.31 10.3811 19.3858 10.3202 19.5048L9.53183 20.8627C9.23154 20.6581 8.94708 20.4312 8.68085 20.1839L10.0084 18.8568C10.1496 18.7154 10.1495 18.4863 10.0082 18.345C9.86681 18.2037 9.6377 18.2038 9.49639 18.3452L8.16926 19.6723C7.92196 19.4061 7.69504 19.1216 7.4905 18.8213L8.84729 18.0325C9.0136 17.9296 9.06804 17.7132 8.97023 17.5439C8.87238 17.3745 8.65771 17.3136 8.48549 17.4062L7.1265 18.195C7.02615 17.994 6.94287 17.7848 6.87756 17.5698C6.80281 17.3165 6.94149 17.0494 7.19164 16.9648L11.0688 15.6435L12.7086 17.2832L11.3875 21.1608ZM13.3699 20.0474H12.5313L13.2817 17.8458C13.5102 18.0386 13.8355 18.0666 14.0936 17.9156V19.3238C14.0936 19.7235 13.7696 20.0474 13.3699 20.0474ZM21.0314 8.7852L14.1772 15.6391L12.7132 14.1752L19.5675 7.32129C19.8285 7.0573 20.2108 6.95328 20.5696 7.04872C20.9284 7.14412 21.2086 7.42431 21.304 7.78309C21.3994 8.14183 21.2954 8.52423 21.0314 8.7852Z" fill="#989898"/>
</g>
<defs>
<clipPath id="clip0_31_1025">
<rect width="21.7286" height="21.7286" fill="white" transform="translate(0.342773 0.5)"/>
</clipPath>
</defs>
</svg>
