<svg width="20" height="20" viewBox="0 0 20 20" fill="none" xmlns="http://www.w3.org/2000/svg">
<g clip-path="url(#clip0_31_892)">
<path d="M3.2511 11.1929C3.07343 11.0306 2.84173 10.9402 2.6011 10.9394H0.976099C0.437621 10.9394 0.00109863 11.3759 0.00109863 11.9144V18.7394C0.00109863 19.2779 0.437621 19.7144 0.976099 19.7144H2.6011C2.87686 19.7135 3.13922 19.5953 3.3226 19.3894H11.4736C11.9505 19.3896 12.4183 19.2585 12.8256 19.0104L18.9161 15.3028C19.2043 15.129 19.4072 14.8433 19.4763 14.5139C19.5454 14.1846 19.4744 13.8413 19.2804 13.5664C19.2738 13.555 19.2663 13.5441 19.258 13.5339C18.9434 13.1162 18.3977 12.9454 17.9011 13.1091L16.9011 13.4419V9.31439H17.8761C17.9942 9.31439 18.1031 9.25027 18.1604 9.14694C18.2176 9.0436 18.2143 8.91732 18.1517 8.81714L16.3609 5.95389C16.2994 5.85519 16.1899 5.79682 16.0737 5.80077C15.9574 5.80472 15.8521 5.87038 15.7974 5.97302C15.7427 6.07566 15.7469 6.19969 15.8084 6.29839L17.2911 8.66439H8.30615L5.4611 4.11439H10.4011C10.5806 4.11439 10.7261 3.96888 10.7261 3.78939C10.7261 3.60989 10.5806 3.46439 10.4011 3.46439H4.8761C4.76443 3.46515 4.66097 3.5232 4.60212 3.61811H4.6005L1.3505 8.81811C1.2884 8.91825 1.28537 9.04416 1.34258 9.14717C1.39978 9.25019 1.50827 9.31417 1.6261 9.31439H3.2511V11.1929ZM2.6011 19.0644H0.976099C0.796606 19.0644 0.651099 18.9189 0.651099 18.7394V11.9144C0.651099 11.7349 0.796606 11.5894 0.976099 11.5894H2.6011C2.78059 11.5894 2.9261 11.7349 2.9261 11.9144V18.7394C2.9261 18.9189 2.78059 19.0644 2.6011 19.0644ZM18.1036 13.7246C18.3265 13.651 18.5718 13.7218 18.7211 13.9031C18.726 13.9112 18.7312 13.9187 18.7367 13.9265C18.8329 14.0537 18.8705 14.2158 18.84 14.3724C18.8096 14.5289 18.714 14.6652 18.5771 14.7471L12.4876 18.4553C12.182 18.6412 11.8313 18.7395 11.4736 18.7394H3.5761V12.2394H4.1611C4.76076 12.2401 5.34246 12.4441 5.81112 12.8182C6.39492 13.2839 7.11929 13.5382 7.8661 13.5394H9.56585C10.0815 13.5377 10.5487 13.8431 10.754 14.3161C10.8827 14.5938 10.8482 14.9197 10.6643 15.1644H8.6851C8.0434 15.1648 7.41613 15.3547 6.882 15.7104L6.64475 15.8696C6.49577 15.9698 6.45619 16.1718 6.55635 16.3207C6.65651 16.4697 6.85847 16.5093 7.00745 16.4091L7.24275 16.2512C7.66995 15.9666 8.17177 15.8146 8.6851 15.8144H11.5743C11.7497 15.8146 11.9238 15.786 12.0898 15.7296L18.1036 13.7246ZM16.2511 13.657L11.8818 15.1137C11.7828 15.1473 11.6789 15.1645 11.5743 15.1644H11.3972C11.5217 14.8064 11.5067 14.4146 11.3553 14.0672C11.1215 13.5216 10.6498 13.1138 10.0761 12.9612V9.31439H16.2511V13.657ZM8.1261 9.31439H9.4261V12.8894H7.8661C7.26644 12.8887 6.68474 12.6847 6.21607 12.3106C5.63227 11.8448 4.90791 11.5906 4.1611 11.5894H3.9011V9.08266L5.8511 5.96266L7.8505 9.16164C7.90989 9.25666 8.01404 9.31439 8.1261 9.31439V9.31439ZM4.8761 4.40266L5.46792 5.34939L3.39605 8.66439H2.2111L4.8761 4.40266Z" fill="#989898"/>
<path d="M14.6225 0.214386C14.4466 0.214312 14.3026 0.35416 14.2975 0.529961V0.536786V0.539386C14.2975 0.658986 14.2679 3.46439 11.6943 3.46439C11.5148 3.46439 11.3693 3.60989 11.3693 3.78939C11.3693 3.96888 11.5148 4.11439 11.6943 4.11439C14.2579 4.11439 14.2969 6.92044 14.2975 7.03939C14.2951 7.21888 14.4386 7.36635 14.6181 7.36877C14.7976 7.3712 14.9451 7.22765 14.9475 7.04816V7.04134V7.03939C14.9475 6.91979 14.9771 4.11439 17.5504 4.11439C17.7299 4.11439 17.8754 3.96888 17.8754 3.78939C17.8754 3.60989 17.7299 3.46439 17.5504 3.46439C14.9872 3.46439 14.9478 0.658336 14.9475 0.539386C14.9475 0.359893 14.802 0.214386 14.6225 0.214386ZM16.0691 3.78939C15.4036 4.14046 14.8892 4.72248 14.6225 5.42609C14.3559 4.72248 13.8415 4.14046 13.1759 3.78939C13.8415 3.43831 14.3559 2.8563 14.6225 2.15269C14.8892 2.8563 15.4036 3.43831 16.0691 3.78939V3.78939Z" fill="#989898"/>
<path d="M15.2756 10.6144C15.0961 10.6144 14.9506 10.7599 14.9506 10.9394V12.6551L13.2229 13.231C13.0524 13.2877 12.9601 13.4719 13.0168 13.6424C13.0736 13.813 13.2578 13.9052 13.4283 13.8485L15.3783 13.1985C15.5113 13.1542 15.6009 13.0296 15.6006 12.8894V10.9394C15.6006 10.7599 15.4551 10.6144 15.2756 10.6144V10.6144Z" fill="#989898"/>
</g>
<defs>
<clipPath id="clip0_31_892">
<rect width="19.5" height="19.5" fill="white" transform="translate(0 0.214355)"/>
</clipPath>
</defs>
</svg>
