<svg width="15" height="15" viewBox="0 0 15 15" fill="none" xmlns="http://www.w3.org/2000/svg">
<g clip-path="url(#clip0_31_883)">
<path d="M7.23551 13.5923H1.89515C1.56761 13.5923 1.30179 13.3265 1.30179 12.999V2.31827C1.30179 1.99073 1.56764 1.72492 1.89515 1.72492H7.23551C7.56364 1.72492 7.82886 1.45969 7.82886 1.13156C7.82886 0.80343 7.56364 0.538147 7.23551 0.538147H1.89515C0.91372 0.538147 0.115051 1.33684 0.115051 2.31827V12.9989C0.115051 13.9804 0.91372 14.779 1.89515 14.779H7.23551C7.56364 14.779 7.82886 14.5138 7.82886 14.1857C7.82886 13.8575 7.56364 13.5923 7.23551 13.5923Z" fill="#313131" fill-opacity="0.5"/>
<path d="M14.2269 7.23609L10.6192 3.67586C10.3866 3.44563 10.0104 3.44862 9.78015 3.68181C9.54992 3.915 9.55229 4.2906 9.78609 4.52083L12.3643 7.06519H5.45566C5.12753 7.06519 4.8623 7.33042 4.8623 7.65855C4.8623 7.98667 5.12753 8.25193 5.45566 8.25193H12.3643L9.78609 10.7963C9.55232 11.0265 9.55053 11.4021 9.78015 11.6353C9.89644 11.7528 10.0495 11.8121 10.2026 11.8121C10.3534 11.8121 10.5041 11.7552 10.6192 11.6412L14.2269 8.081C14.3396 7.96946 14.4037 7.81753 14.4037 7.65852C14.4037 7.49956 14.3402 7.34825 14.2269 7.23609Z" fill="#313131" fill-opacity="0.5"/>
</g>
<defs>
<clipPath id="clip0_31_883">
<rect width="14.2884" height="14.2884" fill="white" transform="translate(0.114258 0.514404)"/>
</clipPath>
</defs>
</svg>
