<svg width="32" height="32" viewBox="0 0 32 32" fill="none" xmlns="http://www.w3.org/2000/svg">
<path d="M26.9667 4.62535C20.7964 -1.54309 10.7938 -1.54161 4.62536 4.62875C-1.54309 10.7991 -1.54161 20.8016 4.62875 26.9701C10.7991 33.1385 20.8016 33.1371 26.9701 26.9667C29.9325 24.0033 31.5963 19.9845 31.5954 15.7943C31.5946 11.6049 29.9296 7.5873 26.9667 4.62535ZM23.9251 22.006C23.9244 22.0067 23.9237 22.0075 23.923 22.0081V22.0029L23.1225 22.798C22.0874 23.8463 20.5797 24.2776 19.1468 23.9354C17.7031 23.549 16.3306 22.9339 15.0815 22.1135C13.921 21.3718 12.8455 20.5048 11.8746 19.5279C10.9812 18.6411 10.1786 17.6673 9.47858 16.6211C8.71289 15.4954 8.10683 14.2691 7.67764 12.9771C7.18563 11.4593 7.59335 9.79379 8.73084 8.67487L9.66815 7.73756C9.92875 7.47579 10.3522 7.47486 10.6139 7.73546C10.6146 7.73614 10.6153 7.73682 10.616 7.73756L13.5754 10.697C13.8372 10.9576 13.8381 11.381 13.5775 11.6427C13.5769 11.6434 13.5762 11.6441 13.5754 11.6448L11.8377 13.3826C11.3391 13.8758 11.2764 14.6595 11.6903 15.2257C12.3188 16.0883 13.0143 16.8999 13.7703 17.6533C14.6132 18.4998 15.5295 19.2699 16.5086 19.9545C17.0743 20.3491 17.8412 20.2825 18.3305 19.7965L20.0103 18.0904C20.2709 17.8286 20.6944 17.8277 20.9561 18.0883C20.9568 18.0889 20.9575 18.0896 20.9582 18.0904L23.9229 21.0603C24.1848 21.3209 24.1857 21.7443 23.9251 22.006Z" fill="#58D7FF"/>
</svg>
