<svg width="20" height="21" viewBox="0 0 20 21" fill="none" xmlns="http://www.w3.org/2000/svg">
<g clip-path="url(#clip0_31_898)">
<path d="M12.4933 9.19803C12.3248 9.19803 12.1886 9.33422 12.1886 9.50272V14.6824C12.1886 14.8509 12.3248 14.9871 12.4933 14.9871C12.6618 14.9871 12.798 14.8509 12.798 14.6824V9.50272C12.798 9.33422 12.6618 9.19803 12.4933 9.19803Z" fill="#989898"/>
<path d="M19.1958 16.8152H18.2881C18.1197 16.8152 17.9835 16.9514 17.9835 17.1199C17.9835 17.2884 18.1197 17.4246 18.2881 17.4246H19.1958C19.3643 17.4246 19.5005 17.2884 19.5005 17.1199C19.5005 16.9514 19.3643 16.8152 19.1958 16.8152Z" fill="#989898"/>
<path d="M19.1964 16.8152C19.0279 16.8152 18.8917 16.9514 18.8917 17.1199V18.3387C18.8917 18.5071 19.0279 18.6433 19.1964 18.6433C19.3649 18.6433 19.5011 18.5071 19.5011 18.3387V17.1199C19.5011 16.9514 19.3649 16.8152 19.1964 16.8152Z" fill="#989898"/>
<path d="M3.04798 18.034C3.04767 18.034 3.04737 18.034 3.04706 18.034L0.914249 18.0404C0.745757 18.041 0.609866 18.1775 0.610476 18.346C0.611085 18.5142 0.74728 18.6497 0.915163 18.6497C0.915468 18.6497 0.915773 18.6497 0.916077 18.6497L3.04889 18.6433C3.21738 18.6427 3.35327 18.5062 3.35266 18.3377C3.35205 18.1696 3.21586 18.034 3.04798 18.034Z" fill="#989898"/>
<path d="M18.8917 15.2918H18.587C18.4185 15.2918 18.2823 15.428 18.2823 15.5965C18.2823 15.765 18.4185 15.9012 18.587 15.9012H18.8917C19.0602 15.9012 19.1964 15.765 19.1964 15.5965C19.1964 15.428 19.0602 15.2918 18.8917 15.2918Z" fill="#989898"/>
<path d="M18.8917 13.159C18.7232 13.159 18.587 13.2952 18.587 13.4637V17.1199C18.587 17.2884 18.7232 17.4246 18.8917 17.4246C19.0602 17.4246 19.1964 17.2884 19.1964 17.1199V13.4637C19.1964 13.2952 19.0602 13.159 18.8917 13.159Z" fill="#989898"/>
<path d="M17.0636 9.19803H12.4933C12.3248 9.19803 12.1886 9.33422 12.1886 9.50272C12.1886 9.67121 12.3248 9.8074 12.4933 9.8074H17.0636C17.2321 9.8074 17.3683 9.67121 17.3683 9.50272C17.3683 9.33422 17.2321 9.19803 17.0636 9.19803Z" fill="#989898"/>
<path d="M19.1684 13.336L17.3403 9.37507C17.2699 9.22212 17.0892 9.1557 16.936 9.22608C16.783 9.29646 16.7166 9.47775 16.787 9.6304L18.6151 13.5913C18.6666 13.7029 18.7769 13.7684 18.8921 13.7684C18.9347 13.7684 18.978 13.7595 19.0194 13.7403C19.1724 13.6699 19.2388 13.4887 19.1684 13.336Z" fill="#989898"/>
<path d="M0.915161 16.8152C0.746669 16.8152 0.610474 16.9514 0.610474 17.1199V18.3578C0.610474 18.5263 0.746669 18.6625 0.915161 18.6625C1.08365 18.6625 1.21985 18.526 1.21985 18.3578V17.1199C1.21985 16.9514 1.08365 16.8152 0.915161 16.8152Z" fill="#989898"/>
<path d="M0.305786 12.8543C0.137294 12.8543 0.00109863 12.9905 0.00109863 13.159V17.1199C0.00109863 17.2884 0.137294 17.4246 0.305786 17.4246C0.474278 17.4246 0.610474 17.2884 0.610474 17.1199V13.159C0.610474 12.9905 0.474278 12.8543 0.305786 12.8543Z" fill="#989898"/>
<path d="M12.4933 12.8543H0.305786C0.137294 12.8543 0.00109863 12.9905 0.00109863 13.159C0.00109863 13.3275 0.137294 13.4637 0.305786 13.4637H12.4933C12.6618 13.4637 12.798 13.3275 12.798 13.159C12.798 12.9905 12.6618 12.8543 12.4933 12.8543Z" fill="#989898"/>
<path d="M1.82922 16.8152H0.305786C0.137294 16.8152 0.00109863 16.9514 0.00109863 17.1199C0.00109863 17.2884 0.137294 17.4246 0.305786 17.4246H1.82922C1.99772 17.4246 2.13391 17.2884 2.13391 17.1199C2.13391 16.9514 1.99772 16.8152 1.82922 16.8152Z" fill="#989898"/>
<path d="M4.8761 16.2058C3.70031 16.2058 2.74329 17.1629 2.74329 18.3387C2.74329 19.5144 3.70031 20.4715 4.8761 20.4715C6.05189 20.4715 7.00891 19.5144 7.00891 18.3387C7.00891 17.1629 6.05189 16.2058 4.8761 16.2058ZM4.8761 19.8621C4.03608 19.8621 3.35266 19.1787 3.35266 18.3387C3.35266 17.4986 4.03608 16.8152 4.8761 16.8152C5.71612 16.8152 6.39954 17.4986 6.39954 18.3387C6.39954 19.1787 5.71612 19.8621 4.8761 19.8621Z" fill="#989898"/>
<path d="M4.8761 17.4246C4.37215 17.4246 3.96204 17.8347 3.96204 18.3387C3.96204 18.8426 4.37215 19.2527 4.8761 19.2527C5.38005 19.2527 5.79016 18.8426 5.79016 18.3387C5.79016 17.8347 5.38005 17.4246 4.8761 17.4246ZM4.8761 18.6433C4.70791 18.6433 4.57141 18.5068 4.57141 18.3387C4.57141 18.1705 4.70791 18.034 4.8761 18.034C5.04429 18.034 5.18079 18.1705 5.18079 18.3387C5.18079 18.5068 5.04429 18.6433 4.8761 18.6433Z" fill="#989898"/>
<path d="M14.9308 17.4246C14.4268 17.4246 14.0167 17.8347 14.0167 18.3387C14.0167 18.8426 14.4268 19.2527 14.9308 19.2527C15.4347 19.2527 15.8448 18.8426 15.8448 18.3387C15.8448 17.8347 15.4347 17.4246 14.9308 17.4246ZM14.9308 18.6433C14.7626 18.6433 14.6261 18.5068 14.6261 18.3387C14.6261 18.1705 14.7626 18.034 14.9308 18.034C15.099 18.034 15.2355 18.1705 15.2355 18.3387C15.2355 18.5068 15.099 18.6433 14.9308 18.6433Z" fill="#989898"/>
<path d="M14.9308 16.2058C13.755 16.2058 12.798 17.1629 12.798 18.3387C12.798 19.5144 13.755 20.4715 14.9308 20.4715C16.1066 20.4715 17.0636 19.5144 17.0636 18.3387C17.0636 17.1629 16.1066 16.2058 14.9308 16.2058ZM14.9308 19.8621C14.0908 19.8621 13.4073 19.1787 13.4073 18.3387C13.4073 17.4986 14.0908 16.8152 14.9308 16.8152C15.7708 16.8152 16.4542 17.4986 16.4542 18.3387C16.4542 19.1787 15.7708 19.8621 14.9308 19.8621Z" fill="#989898"/>
<path d="M13.1103 18.034H6.70422C6.53573 18.034 6.39954 18.1702 6.39954 18.3387C6.39954 18.5071 6.53573 18.6433 6.70422 18.6433H13.1103C13.2788 18.6433 13.415 18.5071 13.415 18.3387C13.415 18.1702 13.2788 18.034 13.1103 18.034Z" fill="#989898"/>
<path d="M19.1964 18.034H16.7589C16.5904 18.034 16.4542 18.1702 16.4542 18.3387C16.4542 18.5071 16.5904 18.6433 16.7589 18.6433H19.1964C19.3649 18.6433 19.5011 18.5071 19.5011 18.3387C19.5011 18.1702 19.3649 18.034 19.1964 18.034Z" fill="#989898"/>
<path d="M18.8917 13.159H15.2355C15.067 13.159 14.9308 13.2952 14.9308 13.4637C14.9308 13.6321 15.067 13.7683 15.2355 13.7683H18.8917C19.0602 13.7683 19.1964 13.6321 19.1964 13.4637C19.1964 13.2952 19.0602 13.159 18.8917 13.159Z" fill="#989898"/>
<path d="M15.2355 13.159C14.7315 13.159 14.3214 12.7489 14.3214 12.2449C14.3214 12.0764 14.1852 11.9402 14.0167 11.9402C13.8482 11.9402 13.712 12.0764 13.712 12.2449C13.712 13.0849 14.3955 13.7683 15.2355 13.7683C15.404 13.7683 15.5402 13.6321 15.5402 13.4637C15.5402 13.2952 15.404 13.159 15.2355 13.159Z" fill="#989898"/>
<path d="M14.0167 9.19803C13.8482 9.19803 13.712 9.33422 13.712 9.50272V12.2449C13.712 12.4134 13.8482 12.5496 14.0167 12.5496C14.1852 12.5496 14.3214 12.4134 14.3214 12.2449V9.50272C14.3214 9.33422 14.1852 9.19803 14.0167 9.19803Z" fill="#989898"/>
<path d="M13.4073 5.54178C13.2389 5.54178 13.1027 5.67797 13.1027 5.84647V7.06522C13.1027 7.23371 13.2389 7.3699 13.4073 7.3699C13.5758 7.3699 13.712 7.23371 13.712 7.06522V5.84647C13.712 5.67797 13.5758 5.54178 13.4073 5.54178Z" fill="#989898"/>
<path d="M1.52454 6.10757C1.35604 6.10757 1.21985 6.24377 1.21985 6.41226V13.159C1.21985 13.3274 1.35604 13.4636 1.52454 13.4636C1.69303 13.4636 1.82922 13.3274 1.82922 13.159V6.41226C1.82922 6.24377 1.69303 6.10757 1.52454 6.10757Z" fill="#989898"/>
<path d="M12.4933 6.10757C12.3248 6.10757 12.1886 6.24377 12.1886 6.41226V13.159C12.1886 13.3274 12.3248 13.4636 12.4933 13.4636C12.6618 13.4636 12.798 13.3274 12.798 13.159V6.41226C12.798 6.24377 12.6618 6.10757 12.4933 6.10757Z" fill="#989898"/>
<path d="M13.5843 5.59845L7.18588 1.02814C7.07985 0.952575 6.93787 0.952575 6.83184 1.02814L0.433398 5.59845C0.296593 5.69626 0.264601 5.88668 0.36271 6.02349C0.46082 6.16029 0.651249 6.19229 0.787749 6.09418L7.00916 1.65061L13.2306 6.09418C13.2842 6.13257 13.3461 6.15115 13.4073 6.15115C13.5027 6.15115 13.5959 6.10667 13.655 6.02349C13.7531 5.88638 13.7211 5.69595 13.5843 5.59845Z" fill="#989898"/>
<path d="M13.5843 6.8172L7.18588 2.24689C7.07985 2.17133 6.93787 2.17133 6.83184 2.24689L0.433398 6.8172C0.296593 6.91501 0.264601 7.10543 0.36271 7.24224C0.46082 7.37904 0.651249 7.41073 0.787749 7.31293L7.00916 2.86936L13.2306 7.31293C13.2842 7.35132 13.3461 7.3699 13.4073 7.3699C13.5027 7.3699 13.5959 7.32542 13.655 7.24224C13.7531 7.10513 13.7211 6.9147 13.5843 6.8172Z" fill="#989898"/>
<path d="M0.610474 5.54178C0.441981 5.54178 0.305786 5.67797 0.305786 5.84647V7.06522C0.305786 7.23371 0.441981 7.3699 0.610474 7.3699C0.778966 7.3699 0.915161 7.23371 0.915161 7.06522V5.84647C0.915161 5.67797 0.778966 5.54178 0.610474 5.54178Z" fill="#989898"/>
<path d="M7.92297 9.19803C7.75448 9.19803 7.61829 9.33422 7.61829 9.50272V13.159C7.61829 13.3275 7.75448 13.4637 7.92297 13.4637C8.09147 13.4637 8.22766 13.3275 8.22766 13.159V9.50272C8.22766 9.33422 8.09147 9.19803 7.92297 9.19803Z" fill="#989898"/>
<path d="M7.92297 9.19803H6.09485C5.92636 9.19803 5.79016 9.33422 5.79016 9.50272C5.79016 9.67121 5.92636 9.8074 6.09485 9.8074H7.92297C8.09147 9.8074 8.22766 9.67121 8.22766 9.50272C8.22766 9.33422 8.09147 9.19803 7.92297 9.19803Z" fill="#989898"/>
<path d="M6.09485 9.19803C5.92636 9.19803 5.79016 9.33422 5.79016 9.50272V13.159C5.79016 13.3275 5.92636 13.4637 6.09485 13.4637C6.26334 13.4637 6.39954 13.3275 6.39954 13.159V9.50272C6.39954 9.33422 6.26334 9.19803 6.09485 9.19803Z" fill="#989898"/>
<path d="M4.8761 7.67459H2.74329C2.57479 7.67459 2.4386 7.81079 2.4386 7.97928V10.1121C2.4386 10.2806 2.57479 10.4168 2.74329 10.4168H4.8761C5.04459 10.4168 5.18079 10.2806 5.18079 10.1121V7.97928C5.18079 7.81079 5.04459 7.67459 4.8761 7.67459ZM4.57141 9.8074H3.04797V8.28397H4.57141V9.8074Z" fill="#989898"/>
<path d="M11.2745 7.67459H9.14172C8.97323 7.67459 8.83704 7.81079 8.83704 7.97928V10.1121C8.83704 10.2806 8.97323 10.4168 9.14172 10.4168H11.2745C11.443 10.4168 11.5792 10.2806 11.5792 10.1121V7.97928C11.5792 7.81079 11.443 7.67459 11.2745 7.67459ZM10.9698 9.8074H9.44641V8.28397H10.9698V9.8074Z" fill="#989898"/>
<path d="M7.00891 4.9324C6.33677 4.9324 5.79016 5.47901 5.79016 6.15115C5.79016 6.82329 6.33677 7.3699 7.00891 7.3699C7.68105 7.3699 8.22766 6.82329 8.22766 6.15115C8.22766 5.47901 7.68105 4.9324 7.00891 4.9324ZM7.00891 6.76053C6.67284 6.76053 6.39954 6.48722 6.39954 6.15115C6.39954 5.81508 6.67284 5.54178 7.00891 5.54178C7.34498 5.54178 7.61829 5.81508 7.61829 6.15115C7.61829 6.48722 7.34498 6.76053 7.00891 6.76053Z" fill="#989898"/>
</g>
<defs>
<clipPath id="clip0_31_898">
<rect width="19.5" height="19.5" fill="white" transform="translate(0 0.971436)"/>
</clipPath>
</defs>
</svg>
