<svg width="33" height="33" viewBox="0 0 33 33" fill="none" xmlns="http://www.w3.org/2000/svg">
<path d="M16.5268 28.2287C13.323 28.2287 10.1193 27.72 7.08052 26.7025C5.92552 26.3037 5.04552 25.4925 4.66052 24.4337C4.26177 23.375 4.39927 22.2062 5.03177 21.1612L6.61302 18.535C6.94302 17.985 7.24552 16.885 7.24552 16.2387V12.265C7.24552 7.14998 11.4118 2.98373 16.5268 2.98373C21.6418 2.98373 25.8081 7.14998 25.8081 12.265V16.2387C25.8081 16.8712 26.1106 17.985 26.4406 18.5487L28.0081 21.1612C28.5993 22.1512 28.7093 23.3475 28.3106 24.4337C27.9118 25.52 27.0456 26.345 25.9593 26.7025C22.9343 27.72 19.7306 28.2287 16.5268 28.2287ZM16.5268 5.04623C12.553 5.04623 9.30802 8.27748 9.30802 12.265V16.2387C9.30802 17.2425 8.89552 18.7275 8.38677 19.5937L6.80552 22.22C6.50302 22.7287 6.42052 23.265 6.59927 23.7187C6.76427 24.1862 7.17677 24.5437 7.74052 24.7362C13.488 26.6612 19.5793 26.6612 25.3268 24.7362C25.8218 24.5712 26.2068 24.2 26.3856 23.705C26.5643 23.21 26.5231 22.6737 26.2481 22.22L24.6668 19.5937C24.1443 18.7 23.7456 17.2287 23.7456 16.225V12.265C23.7456 8.27748 20.5143 5.04623 16.5268 5.04623V5.04623Z" fill="#58D7FF"/>
<path d="M19.0846 5.41774C18.9883 5.41774 18.8921 5.40399 18.7958 5.37649C18.3971 5.26649 18.0121 5.18399 17.6408 5.12899C16.4721 4.97774 15.3446 5.06024 14.2858 5.37649C13.9008 5.50024 13.4883 5.37649 13.2271 5.08774C12.9658 4.79899 12.8833 4.38649 13.0346 4.01524C13.5983 2.57149 14.9733 1.62274 16.5408 1.62274C18.1083 1.62274 19.4833 2.55774 20.0471 4.01524C20.1846 4.38649 20.1158 4.79899 19.8546 5.08774C19.6483 5.30774 19.3596 5.41774 19.0846 5.41774V5.41774Z" fill="#58D7FF"/>
<path d="M16.5255 31.3639C15.1643 31.3639 13.8443 30.8139 12.8818 29.8514C11.9193 28.8889 11.3693 27.5689 11.3693 26.2076H13.4318C13.4318 27.0189 13.7618 27.8164 14.3393 28.3939C14.9168 28.9714 15.7143 29.3014 16.5255 29.3014C18.2305 29.3014 19.6193 27.9126 19.6193 26.2076H21.6818C21.6818 29.0539 19.3718 31.3639 16.5255 31.3639Z" fill="#58D7FF"/>
</svg>
