<svg width="16" height="16" viewBox="0 0 16 16" fill="none" xmlns="http://www.w3.org/2000/svg">
<g clip-path="url(#clip0_31_873)">
<path d="M14.9643 14.259L13.9408 11.2802C14.4331 10.285 14.6934 9.17581 14.6952 8.05969C14.6982 6.1377 13.9545 4.32033 12.6012 2.94248C11.2477 1.56437 9.44397 0.788663 7.52248 0.758174C6.51576 0.742012 5.53889 0.927508 4.61753 1.3089C3.72887 1.67677 2.93193 2.20964 2.24889 2.89269C1.56582 3.57573 1.03295 4.37266 0.6651 5.26133C0.283713 6.18269 0.0984206 7.16005 0.114349 8.16627C0.14478 10.0878 0.920514 11.8914 2.29863 13.245C3.6738 14.5957 5.48648 15.3391 7.40434 15.3391C7.40809 15.3391 7.41205 15.3391 7.41581 15.3391C8.53193 15.3373 9.64115 15.077 10.6363 14.5847L13.6151 15.6082C13.7297 15.6476 13.8471 15.6668 13.9632 15.6668C14.2391 15.6668 14.5075 15.5584 14.711 15.3548C15.0001 15.0657 15.0972 14.6458 14.9643 14.259ZM14.0859 14.7298C14.0566 14.7591 13.9938 14.8036 13.9023 14.7722L10.7459 13.6876C10.6992 13.6716 10.6507 13.6636 10.6023 13.6636C10.5309 13.6636 10.4599 13.6809 10.3956 13.7149C9.48332 14.1975 8.45246 14.4535 7.41441 14.4551C3.93309 14.4607 1.05333 11.633 0.998177 8.15227C0.970426 6.401 1.63658 4.7551 2.87393 3.51775C4.11127 2.28043 5.75668 1.6144 7.50844 1.64209C10.9892 1.69727 13.8166 4.5756 13.8112 8.05832C13.8096 9.0964 13.5536 10.1273 13.071 11.0394C13.0139 11.1474 13.004 11.2742 13.0437 11.3898L14.1283 14.5462C14.1598 14.6376 14.1153 14.7005 14.0859 14.7298Z" fill="#313131" fill-opacity="0.5"/>
<path d="M7.33292 11.3205C7.10174 11.3205 6.88025 11.5238 6.89094 11.7625C6.90165 12.0019 7.08514 12.2045 7.33292 12.2045C7.56411 12.2045 7.7856 12.0012 7.77491 11.7625C7.76419 11.523 7.58071 11.3205 7.33292 11.3205Z" fill="#313131" fill-opacity="0.5"/>
<path d="M7.33378 4.4751C6.12124 4.4751 5.13477 5.46157 5.13477 6.67411C5.13477 6.9182 5.33267 7.1161 5.57675 7.1161C5.82084 7.1161 6.01874 6.9182 6.01874 6.67411C6.01874 5.94902 6.60869 5.35907 7.33378 5.35907C8.05887 5.35907 8.64882 5.94902 8.64882 6.67411C8.64882 7.3992 8.05887 7.98915 7.33378 7.98915C7.08969 7.98915 6.89179 8.18705 6.89179 8.43114V10.2338C6.89179 10.4779 7.08969 10.6758 7.33378 10.6758C7.57787 10.6758 7.77577 10.4779 7.77577 10.2338V8.82848C8.77718 8.62333 9.53279 7.73531 9.53279 6.67411C9.53279 5.46157 8.54632 4.4751 7.33378 4.4751Z" fill="#313131" fill-opacity="0.5"/>
</g>
<defs>
<clipPath id="clip0_31_873">
<rect width="14.9096" height="14.9096" fill="white" transform="translate(0.114258 0.757202)"/>
</clipPath>
</defs>
</svg>
