<svg width="18" height="17" viewBox="0 0 18 17" fill="none" xmlns="http://www.w3.org/2000/svg">
<path fill-rule="evenodd" clip-rule="evenodd" d="M0.680163 0.994598C1.05581 0.994598 1.36033 1.29912 1.36033 1.67476V5.07557H4.76114C5.13678 5.07557 5.4413 5.38009 5.4413 5.75574C5.4413 6.13138 5.13678 6.4359 4.76114 6.4359H0.680163C0.304519 6.4359 0 6.13138 0 5.75574V1.67476C0 1.29912 0.304519 0.994598 0.680163 0.994598Z" fill="#313131"/>
<path fill-rule="evenodd" clip-rule="evenodd" d="M7.26867 0.157321C8.85212 -0.15815 10.4936 0.00309517 11.9853 0.620658C13.4771 1.23822 14.7522 2.28436 15.6494 3.62673C16.5465 4.9691 17.0254 6.54739 17.0254 8.16196C17.0254 9.77652 16.5465 11.3548 15.6494 12.6972C14.7522 14.0396 13.4771 15.0857 11.9853 15.7033C10.4936 16.3208 8.85212 16.4821 7.26867 16.1666C5.68522 15.8511 4.23092 15.0731 3.08971 13.931C2.8242 13.6652 2.82438 13.2346 3.0901 12.9691C3.35583 12.7036 3.78649 12.7037 4.052 12.9695C5.003 13.9213 6.21493 14.5696 7.53447 14.8325C8.854 15.0954 10.2219 14.961 11.465 14.4464C12.7082 13.9317 13.7708 13.06 14.5184 11.9413C15.266 10.8227 15.6651 9.50743 15.6651 8.16196C15.6651 6.81648 15.266 5.50124 14.5184 4.3826C13.7708 3.26396 12.7082 2.39218 11.465 1.87754C10.2219 1.36291 8.854 1.22853 7.53447 1.49143C6.21493 1.75432 5.003 2.40266 4.052 3.35444L4.05109 3.35535L1.1604 6.23754C0.894391 6.50276 0.463736 6.50213 0.198507 6.23612C-0.0667214 5.97011 -0.0660871 5.53945 0.199924 5.27423L3.08971 2.39294C3.08986 2.39279 3.09002 2.39263 3.09017 2.39248C4.23131 1.2506 5.68544 0.472749 7.26867 0.157321Z" fill="#313131"/>
</svg>
