<svg width="22" height="22" viewBox="0 0 22 22" fill="none" xmlns="http://www.w3.org/2000/svg">
<g clip-path="url(#clip0_31_828)">
<path d="M20.2191 5.6646C20.2078 5.07063 20.197 4.50951 20.197 3.96668C20.197 3.5414 19.8524 3.19662 19.427 3.19662C16.1337 3.19662 13.6263 2.25017 11.5363 0.218041C11.2373 -0.0727318 10.7615 -0.0726292 10.4626 0.218041C8.37277 2.25017 5.86577 3.19662 2.5727 3.19662C2.14743 3.19662 1.80265 3.5414 1.80265 3.96668C1.80265 4.50962 1.79197 5.07094 1.78057 5.66501C1.67502 11.1926 1.53046 18.7628 10.7472 21.9576C10.8289 21.9859 10.9142 22.0001 10.9994 22.0001C11.0846 22.0001 11.1699 21.9859 11.2515 21.9576C20.469 18.7627 20.3247 11.1923 20.2191 5.6646ZM10.9995 20.4128C3.0949 17.5413 3.21442 11.251 3.32048 5.69437C3.32684 5.36089 3.33301 5.03767 3.33732 4.72082C6.42165 4.59063 8.88809 3.65598 10.9995 1.81668C13.1111 3.65598 15.5779 4.59073 18.6625 4.72082C18.6668 5.03757 18.6729 5.36058 18.6793 5.69386C18.7853 11.2507 18.9047 17.5412 10.9995 20.4128Z" fill="#313131"/>
<path d="M13.6512 8.32489L9.93455 12.0414L8.34854 10.4554C8.04781 10.1548 7.56021 10.1548 7.25958 10.4554C6.95884 10.7562 6.95884 11.2437 7.25958 11.5444L9.39007 13.6749C9.54038 13.8253 9.73752 13.9004 9.93455 13.9004C10.1316 13.9004 10.3287 13.8253 10.479 13.6749L14.7401 9.41396C15.0409 9.11323 15.0409 8.62563 14.7402 8.325C14.4396 8.02426 13.952 8.02416 13.6512 8.32489Z" fill="#313131"/>
</g>
<defs>
<clipPath id="clip0_31_828">
<rect width="22" height="22" fill="white"/>
</clipPath>
</defs>
</svg>
