<svg width="14" height="14" viewBox="0 0 14 14" fill="none" xmlns="http://www.w3.org/2000/svg">
<g clip-path="url(#clip0_199_4)">
<path d="M13.2834 5.53048L12.3007 5.36378C12.1984 5.03331 12.0668 4.71453 11.9059 4.41037L12.485 3.60027C12.7306 3.25517 12.6926 2.78431 12.3914 2.48601L11.5199 1.61448C11.3561 1.45071 11.1397 1.36005 10.9086 1.36005C10.7273 1.36005 10.5548 1.41561 10.4085 1.5209L9.59551 2.09996C9.27966 1.93326 8.94918 1.79581 8.60701 1.69345L8.44323 0.722491C8.37304 0.304277 8.01332 0.00012207 7.58926 0.00012207H6.35801C5.93395 0.00012207 5.57423 0.304277 5.50404 0.722491L5.33441 1.71684C5.00686 1.8192 4.68808 1.95373 4.38393 2.11751L3.57967 1.53845C3.43344 1.43316 3.25797 1.37759 3.07665 1.37759C2.84561 1.37759 2.62626 1.46826 2.46541 1.63203L1.59097 2.50355C1.29266 2.80186 1.25172 3.27271 1.49738 3.61781L2.08229 4.43962C1.92144 4.7467 1.79276 5.06548 1.69333 5.39595L0.722369 5.55973C0.304155 5.62992 0 5.98964 0 6.4137V7.64495C0 8.06901 0.304155 8.42873 0.722369 8.49892L1.71672 8.66854C1.81908 8.9961 1.95361 9.31487 2.11739 9.61903L1.54125 10.4204C1.29558 10.7655 1.3336 11.2363 1.63483 11.5346L2.50636 12.4061C2.67013 12.5699 2.88655 12.6606 3.11759 12.6606C3.29891 12.6606 3.47146 12.605 3.61769 12.4997L4.4395 11.9148C4.73488 12.0698 5.04488 12.1956 5.36366 12.295L5.52744 13.2777C5.59762 13.6959 5.95735 14 6.38141 14H7.61558C8.03964 14 8.39936 13.6959 8.46955 13.2777L8.63625 12.295C8.96673 12.1927 9.28551 12.061 9.58966 11.9002L10.3998 12.4793C10.546 12.5845 10.7215 12.6401 10.9028 12.6401C11.1338 12.6401 11.3503 12.5494 11.514 12.3857L12.3855 11.5142C12.6839 11.2158 12.7248 10.745 12.4791 10.3999L11.9001 9.58686C12.0609 9.27978 12.1955 8.961 12.2949 8.63345L13.2775 8.46967C13.6958 8.39948 13.9999 8.03976 13.9999 7.6157V6.38446C14.0058 5.96039 13.7016 5.60067 13.2834 5.53048ZM13.2161 7.6157C13.2161 7.65372 13.1898 7.68589 13.1518 7.69174L11.9235 7.89646C11.7685 7.92278 11.6456 8.03684 11.6076 8.18599C11.4965 8.6159 11.3269 9.02827 11.0987 9.41139C11.0198 9.54592 11.0256 9.71262 11.1163 9.8413L11.8387 10.859C11.8591 10.8883 11.8562 10.9322 11.8299 10.9585L10.9584 11.83C10.9379 11.8505 10.9174 11.8534 10.9028 11.8534C10.8852 11.8534 10.8706 11.8476 10.8589 11.8388L9.8441 11.1164C9.71834 11.0257 9.54872 11.0199 9.41419 11.0989C9.03107 11.327 8.6187 11.4966 8.18879 11.6077C8.03672 11.6458 7.92266 11.7715 7.89926 11.9236L7.69162 13.1519C7.68577 13.1899 7.6536 13.2162 7.61558 13.2162H6.38433C6.34631 13.2162 6.31414 13.1899 6.3083 13.1519L6.10358 11.9236C6.07725 11.7686 5.9632 11.6458 5.81404 11.6077C5.39583 11.4995 4.99224 11.3328 4.61497 11.1164C4.55355 11.0813 4.48336 11.0638 4.4161 11.0638C4.33714 11.0638 4.25525 11.0872 4.18798 11.1369L3.16438 11.8651C3.14976 11.8739 3.13514 11.8797 3.12051 11.8797C3.10882 11.8797 3.08542 11.8768 3.06495 11.8563L2.19343 10.9848C2.16711 10.9585 2.16418 10.9175 2.18465 10.8854L2.9041 9.87639C2.99476 9.74771 3.00061 9.57809 2.92164 9.44356C2.69353 9.06336 2.51805 8.651 2.40692 8.22109C2.36598 8.07193 2.24314 7.95787 2.09107 7.93155L0.853974 7.72098C0.815955 7.71514 0.789634 7.68297 0.789634 7.64495V6.4137C0.789634 6.37568 0.815955 6.34351 0.853974 6.33766L2.07352 6.13294C2.22852 6.10662 2.35428 5.99256 2.3923 5.84049C2.50051 5.41057 2.66721 4.99529 2.8924 4.61217C2.97136 4.47764 2.96259 4.31094 2.87193 4.18518L2.14371 3.16158C2.12324 3.13234 2.12616 3.08847 2.15248 3.06215L3.024 2.19062C3.04448 2.17015 3.06495 2.16723 3.07957 2.16723C3.09712 2.16723 3.11174 2.17308 3.12344 2.18185L4.13242 2.90129C4.2611 2.99196 4.43072 2.99781 4.56525 2.91884C4.94545 2.69073 5.35781 2.51525 5.78772 2.40412C5.93687 2.36317 6.05093 2.24034 6.07725 2.08826L6.28782 0.851172C6.29367 0.813152 6.32584 0.786831 6.36386 0.786831H7.59511C7.63313 0.786831 7.66529 0.813152 7.67114 0.851172L7.87586 2.07072C7.90218 2.22572 8.01624 2.35148 8.16832 2.38949C8.60993 2.50063 9.03107 2.67318 9.42296 2.90422C9.55749 2.98318 9.72419 2.97733 9.85287 2.88667L10.8618 2.16138C10.8765 2.1526 10.8911 2.14676 10.9057 2.14676C10.9174 2.14676 10.9408 2.14968 10.9613 2.17015L11.8328 3.04167C11.8591 3.068 11.8621 3.10894 11.8416 3.14111L11.1192 4.15593C11.0285 4.28169 11.0227 4.45132 11.1017 4.58585C11.3298 4.96896 11.4994 5.38133 11.6105 5.81124C11.6486 5.96332 11.7743 6.07738 11.9264 6.10077L13.1547 6.30842C13.1927 6.31427 13.2191 6.34644 13.2191 6.38446V7.6157H13.2161V7.6157Z" fill="#989898"/>
<path d="M7.00155 3.97742C5.33454 3.97742 3.98047 5.33149 3.98047 6.9985C3.98047 8.6655 5.33454 10.0196 7.00155 10.0196C8.66855 10.0196 10.0226 8.6655 10.0226 6.9985C10.0226 5.33149 8.66855 3.97742 7.00155 3.97742ZM7.00155 9.22994C5.7703 9.22994 4.7701 8.22974 4.7701 6.9985C4.7701 5.76725 5.7703 4.76705 7.00155 4.76705C8.23279 4.76705 9.233 5.76725 9.233 6.9985C9.233 8.22974 8.23279 9.22994 7.00155 9.22994Z" fill="#989898"/>
</g>
<defs>
<clipPath id="clip0_199_4">
<rect width="14" height="14" fill="white"/>
</clipPath>
</defs>
</svg>
