<svg width="24" height="16" viewBox="0 0 24 16" fill="none" xmlns="http://www.w3.org/2000/svg">
<g clip-path="url(#clip0_31_1104)">
<path d="M21.259 9.7268C21.2587 9.72077 21.2586 9.71478 21.258 9.70875C21.2569 9.69664 21.255 9.68471 21.2526 9.67301C21.2525 9.67273 21.2525 9.6725 21.2524 9.67223L20.6388 6.75737C20.6385 6.75631 20.6383 6.75531 20.6381 6.75426L20.0245 3.83957C20.0243 3.83852 20.0241 3.83752 20.0239 3.83647L19.4097 0.918905C19.3761 0.759446 19.2354 0.645325 19.0725 0.645325H4.33C4.16702 0.645325 4.02639 0.759446 3.9928 0.918905L3.37873 3.83615C3.37846 3.83738 3.37818 3.83857 3.37795 3.8398L2.76439 6.75453C2.7642 6.75535 2.76402 6.75622 2.76388 6.75705L2.15027 9.67196C2.14771 9.68425 2.14575 9.69682 2.14451 9.70952C2.14424 9.71245 2.14428 9.71547 2.14406 9.71839C2.14346 9.72657 2.14282 9.73475 2.14282 9.74312V11.1253C2.14282 11.3156 2.29707 11.4699 2.48738 11.4699H10.6655V13.4057H8.01556C7.82521 13.4057 7.671 13.56 7.671 13.7502V14.7879H4.33005C4.13969 14.7879 3.98549 14.9422 3.98549 15.1325C3.98549 15.3227 4.13974 15.477 4.33005 15.477H8.01561H15.3869H19.0719C19.2623 15.477 19.4165 15.3227 19.4165 15.1325C19.4165 14.9422 19.2622 14.7879 19.0719 14.7879H15.7315V13.7502C15.7315 13.5599 15.5772 13.4057 15.3869 13.4057H12.7369V11.4699H20.9151C21.1055 11.4699 21.2597 11.3156 21.2597 11.1253V9.74929C21.2597 9.74883 21.2597 9.74828 21.2597 9.74773V9.74325C21.2598 9.73763 21.2592 9.73228 21.259 9.7268ZM20.4906 9.3986H15.0939L14.9375 7.16997H20.0214L20.4906 9.3986ZM19.4072 4.25223L19.8764 6.48086H14.8891L14.7327 4.25223H19.4072ZM18.7929 1.33448L19.2621 3.56312H14.6843L14.5279 1.33448H18.7929ZM9.56541 1.33448H13.8371L13.9935 3.56312H9.40901L9.56541 1.33448ZM9.3607 4.25223H14.0419L14.1983 6.48086H9.2043L9.3607 4.25223ZM9.156 7.17002H14.2467L14.4031 9.3986H8.9996L9.156 7.17002ZM4.60961 1.33448H8.8746L8.7182 3.56312H4.14042L4.60961 1.33448ZM3.99541 4.25223H8.66985L8.51345 6.48086H3.52622L3.99541 4.25223ZM15.0424 14.0949V14.788H8.36021V14.0949H11.0102H12.3924H15.0424ZM11.3547 13.4058V11.47H12.0478V13.4058H11.3547ZM12.3964 10.7808C12.3951 10.7808 12.3938 10.7806 12.3924 10.7806H11.0102C11.0089 10.7806 11.0075 10.7808 11.0062 10.7808H2.83194V10.0878H4.47337C4.66373 10.0878 4.81793 9.93347 4.81793 9.74321C4.81793 9.5529 4.66368 9.39865 4.47337 9.39865H2.91201L3.38115 7.17002H8.4651L8.3087 9.3986H5.96348H5.96344C5.77308 9.3986 5.61888 9.5529 5.61888 9.74316C5.61888 9.93347 5.77313 10.0877 5.96344 10.0877H5.96348H8.62968C8.6299 10.0877 8.63009 10.0877 8.63032 10.0877C8.63045 10.0877 8.63064 10.0877 8.63077 10.0877H14.7718C14.7719 10.0877 14.7721 10.0877 14.7722 10.0877C14.7725 10.0877 14.7727 10.0877 14.7729 10.0877H20.5705V10.7808H12.3964V10.7808Z" fill="#989898"/>
</g>
<defs>
<clipPath id="clip0_31_1104">
<rect width="23.4" height="15.3771" fill="white" transform="translate(0 0.0998535)"/>
</clipPath>
</defs>
</svg>
