<svg width="20" height="21" viewBox="0 0 20 21" fill="none" xmlns="http://www.w3.org/2000/svg">
<g clip-path="url(#clip0_31_1041)">
<path d="M9.78033 20.2573C9.7153 20.2573 9.64991 20.2368 9.59504 20.196L0.242045 13.2633C0.161158 13.2034 0.114479 13.1079 0.11626 13.0072C0.117864 12.9066 0.168463 12.8129 0.251488 12.7562L1.3522 12.002C1.49437 11.9049 1.68786 11.9414 1.78514 12.0829C1.88206 12.2249 1.84607 12.4186 1.70407 12.5159L0.963795 13.0231L9.78033 19.5582L18.6043 13.0177L17.8751 12.4968C17.7354 12.3967 17.7028 12.2023 17.8028 12.0626C17.9027 11.9227 18.0975 11.8901 18.237 11.9901L19.3143 12.7598C19.3954 12.8175 19.4439 12.9108 19.4448 13.0103C19.4456 13.11 19.3988 13.2039 19.3188 13.2633L9.96562 20.1959C9.91093 20.2368 9.84554 20.2573 9.78033 20.2573V20.2573Z" fill="#989898"/>
<path d="M9.78033 18.6876C9.7153 18.6876 9.64991 18.6671 9.59504 18.6263L0.242045 11.6933C0.161158 11.6331 0.114479 11.5379 0.11626 11.4371C0.117864 11.3364 0.168463 11.2429 0.251488 11.1861L1.27131 10.4877C1.41402 10.3907 1.60697 10.4271 1.70425 10.5685C1.80135 10.7105 1.76518 10.9042 1.62336 11.0017L0.963795 11.4531L9.78033 17.9884L18.6045 11.4476L17.977 10.9993C17.8372 10.8996 17.8046 10.705 17.9045 10.5652C18.0045 10.4255 18.1994 10.3929 18.3389 10.4928L19.3147 11.1898C19.3958 11.2475 19.4442 11.3407 19.4451 11.4403C19.446 11.5397 19.3991 11.634 19.3192 11.6933L9.96598 18.6263C9.91093 18.6671 9.84554 18.6876 9.78033 18.6876Z" fill="#989898"/>
<path d="M15.7395 7.76068C15.677 7.76068 15.6135 7.74198 15.5588 7.7026L12.4331 5.47019C12.2932 5.37041 12.2608 5.17586 12.3608 5.036C12.4607 4.89613 12.6554 4.86371 12.7949 4.96366L15.9207 7.19608C16.0605 7.29585 16.0932 7.49041 15.9932 7.63027C15.9324 7.71543 15.8368 7.76068 15.7395 7.76068V7.76068Z" fill="#989898"/>
<path d="M6.59577 14.7575C6.53146 14.7575 6.4666 14.7377 6.41066 14.6964L3.34086 12.421C3.20278 12.3186 3.17392 12.1237 3.27601 11.9852C3.37881 11.8471 3.57337 11.8185 3.7118 11.9205L6.78178 14.1959C6.91986 14.2983 6.94854 14.4933 6.84645 14.6315C6.78534 14.714 6.69092 14.7575 6.59577 14.7575V14.7575Z" fill="#989898"/>
<path d="M7.93815 9.10603C7.91053 9.10603 7.88256 9.10247 7.85512 9.09481L3.62654 7.92533C3.50984 7.89308 3.42236 7.79616 3.40258 7.67661C3.38263 7.55706 3.43376 7.43662 3.53353 7.3682L9.80051 3.07601C9.90866 3.00207 10.051 3.00367 10.1574 3.07975L12.7949 4.96368C12.8753 5.02122 12.9238 5.11298 12.9254 5.21186C12.927 5.31074 12.8815 5.40428 12.8031 5.46432L8.12754 9.04189C8.07248 9.08376 8.00567 9.10603 7.93815 9.10603ZM4.43808 7.50361L7.87205 8.45323L12.0905 5.22558L9.9728 3.71313L4.43808 7.50361Z" fill="#989898"/>
<path d="M3.52653 12.4823C3.4615 12.4823 3.39611 12.4618 3.34124 12.421L0.242045 10.1237C0.161158 10.0635 0.114479 9.96835 0.11626 9.86769C0.117864 9.76685 0.168463 9.67331 0.251488 9.61647L3.53384 7.3682C3.67619 7.27092 3.8695 7.30798 3.96678 7.44926C4.06388 7.59126 4.02771 7.78493 3.88589 7.88221L0.963795 9.88354L3.52368 11.781L7.7496 8.54748C7.88589 8.44307 8.08205 8.46891 8.1861 8.60556C8.29069 8.74204 8.2645 8.93766 8.12802 9.04189L3.71592 12.418C3.66016 12.4609 3.59317 12.4823 3.52653 12.4823Z" fill="#989898"/>
<path d="M9.78042 17.1176C9.71539 17.1176 9.65 17.0973 9.59513 17.0565L6.41112 14.6964C6.33273 14.6379 6.28587 14.5462 6.28516 14.4485C6.28463 14.3505 6.32952 14.2581 6.40738 14.1987L10.8412 10.8063C10.9273 10.7402 11.0418 10.7236 11.143 10.7635C11.2442 10.8027 11.3176 10.892 11.3367 10.9989L12.0962 15.2622C12.1171 15.3787 12.0702 15.4967 11.9752 15.5672L9.96607 17.0565C9.91101 17.0973 9.84563 17.1176 9.78042 17.1176ZM7.11417 14.4421L9.78042 16.4185L11.4497 15.1817L10.8134 11.6114L7.11417 14.4421Z" fill="#989898"/>
<path d="M11.7899 15.6283C11.6944 15.6283 11.6003 15.585 11.5394 15.5024C11.4371 15.3641 11.466 15.1692 11.6041 15.0668L18.6044 9.87803L15.7466 7.83661L11.2192 11.3009C11.0833 11.4054 10.8871 11.3796 10.7829 11.2428C10.6783 11.1063 10.7043 10.9107 10.841 10.8065L15.551 7.20234C15.6591 7.11913 15.8097 7.11628 15.921 7.19628L19.3146 9.62022C19.3956 9.67795 19.4441 9.77113 19.445 9.87073C19.4459 9.97032 19.399 10.0644 19.319 10.1237L11.975 15.5672C11.9191 15.6086 11.8542 15.6283 11.7899 15.6283V15.6283Z" fill="#989898"/>
<path d="M8.16158 3.07855C8.08194 3.07855 8.0023 3.04808 7.94137 2.98733L6.9554 2.00118C6.83371 1.87949 6.83371 1.68244 6.9554 1.56093C7.07691 1.43924 7.27396 1.43924 7.39565 1.56093L8.3818 2.5469C8.50331 2.66859 8.50331 2.86564 8.3818 2.98733C8.32086 3.04808 8.24122 3.07855 8.16158 3.07855Z" fill="#989898"/>
<path d="M11.7908 3.07849C11.711 3.07849 11.6316 3.04802 11.5706 2.98727C11.4491 2.86558 11.4491 2.66853 11.5706 2.54684L12.5568 1.56087C12.6783 1.43918 12.8753 1.43918 12.997 1.56087C13.1185 1.68238 13.1185 1.87943 12.997 2.00112L12.0109 2.98727C11.9501 3.04802 11.8705 3.07849 11.7908 3.07849V3.07849Z" fill="#989898"/>
<path d="M9.70774 2.62542C9.53563 2.62542 9.3963 2.48609 9.3963 2.31398V1.06861C9.3963 0.896497 9.53563 0.757172 9.70774 0.757172C9.87967 0.757172 10.019 0.896497 10.019 1.06861V2.31398C10.019 2.48627 9.87984 2.62542 9.70774 2.62542Z" fill="#989898"/>
</g>
<defs>
<clipPath id="clip0_31_1041">
<rect width="19.5" height="19.5" fill="white" transform="translate(0 0.757202)"/>
</clipPath>
</defs>
</svg>
