<svg width="31" height="31" viewBox="0 0 31 31" fill="none" xmlns="http://www.w3.org/2000/svg">
<path d="M28.2411 16.687C27.9007 16.687 27.5742 16.8223 27.3335 17.063C27.0927 17.3037 26.9575 17.6302 26.9575 17.9706V23.3785C26.9565 24.327 26.5792 25.2364 25.9086 25.9071C25.2379 26.5777 24.3285 26.955 23.38 26.956H7.42974C6.48125 26.955 5.5719 26.5777 4.90122 25.9071C4.23054 25.2364 3.8533 24.327 3.85228 23.3785V17.9706C3.85228 17.6302 3.71704 17.3037 3.47632 17.063C3.23559 16.8223 2.9091 16.687 2.56866 16.687C2.22822 16.687 1.90172 16.8223 1.661 17.063C1.42027 17.3037 1.28503 17.6302 1.28503 17.9706V23.3785C1.28673 25.0077 1.93467 26.5696 3.08665 27.7216C4.23864 28.8736 5.80058 29.5215 7.42974 29.5232H23.38C25.0092 29.5215 26.5711 28.8736 27.7231 27.7216C28.8751 26.5696 29.523 25.0077 29.5247 23.3785V17.9706C29.5247 17.6302 29.3895 17.3037 29.1488 17.063C28.9081 16.8223 28.5816 16.687 28.2411 16.687Z" fill="#58D7FF"/>
<path d="M8.60979 11.1766L14.1204 5.66601V21.8217C14.1204 22.1621 14.2556 22.4886 14.4963 22.7294C14.7371 22.9701 15.0636 23.1053 15.404 23.1053C15.7444 23.1053 16.0709 22.9701 16.3117 22.7294C16.5524 22.4886 16.6876 22.1621 16.6876 21.8217V5.66601L22.1982 11.1766C22.4403 11.4104 22.7646 11.5398 23.1011 11.5369C23.4377 11.534 23.7596 11.399 23.9976 11.161C24.2356 10.923 24.3706 10.601 24.3735 10.2645C24.3765 9.9279 24.2471 9.60366 24.0133 9.36156L16.3115 1.65982C16.0708 1.41918 15.7444 1.284 15.404 1.284C15.0636 1.284 14.7372 1.41918 14.4965 1.65982L6.79475 9.36156C6.56092 9.60366 6.43154 9.9279 6.43447 10.2645C6.43739 10.601 6.57239 10.923 6.81038 11.161C7.04838 11.399 7.37033 11.534 7.70689 11.5369C8.04345 11.5398 8.36769 11.4104 8.60979 11.1766V11.1766Z" fill="#58D7FF"/>
</svg>
