<svg width="17" height="17" viewBox="0 0 17 17" fill="none" xmlns="http://www.w3.org/2000/svg">
<g clip-path="url(#clip0_31_825)">
<path d="M8.98427 8.18898C10.1093 8.18898 11.0833 7.78549 11.8794 6.98939C12.6753 6.19342 13.0789 5.21951 13.0789 4.09436C13.0789 2.96961 12.6754 1.99556 11.8793 1.19933C11.0832 0.403496 10.1092 0 8.98427 0C7.85912 0 6.88521 0.403496 6.08924 1.19946C5.29327 1.99543 4.88965 2.96948 4.88965 4.09436C4.88965 5.21951 5.29327 6.19355 6.08924 6.98952C6.88547 7.78536 7.85951 8.18898 8.98427 8.18898V8.18898ZM6.79377 1.90386C7.40453 1.29311 8.12099 0.996224 8.98427 0.996224C9.84742 0.996224 10.564 1.29311 11.1749 1.90386C11.7857 2.51475 12.0827 3.23134 12.0827 4.09436C12.0827 4.95764 11.7857 5.6741 11.1749 6.28499C10.564 6.89588 9.84742 7.19276 8.98427 7.19276C8.12125 7.19276 7.40479 6.89575 6.79377 6.28499C6.18288 5.67423 5.88587 4.95764 5.88587 4.09436C5.88587 3.23134 6.18288 2.51475 6.79377 1.90386Z" fill="#313131"/>
<path d="M16.1488 13.0723C16.1259 12.741 16.0794 12.3797 16.0111 11.9981C15.9421 11.6137 15.8532 11.2503 15.7469 10.9181C15.6369 10.5748 15.4876 10.2358 15.3028 9.91086C15.1112 9.57364 14.8861 9.28 14.6334 9.03837C14.3692 8.78558 14.0457 8.58234 13.6717 8.4341C13.2989 8.28663 12.8858 8.21192 12.4439 8.21192C12.2704 8.21192 12.1026 8.28313 11.7785 8.49415C11.579 8.62424 11.3456 8.77469 11.0852 8.94109C10.8625 9.08299 10.5608 9.21593 10.1882 9.33629C9.82466 9.45393 9.45553 9.51359 9.09107 9.51359C8.72688 9.51359 8.35775 9.45393 7.99394 9.33629C7.62171 9.21606 7.31989 9.08311 7.09759 8.94122C6.83962 8.77637 6.60616 8.62592 6.4037 8.49402C6.07984 8.283 5.912 8.21179 5.73847 8.21179C5.29645 8.21179 4.88348 8.28663 4.51086 8.43423C4.13706 8.58221 3.81346 8.78545 3.549 9.0385C3.29635 9.28026 3.07119 9.57377 2.87975 9.91086C2.69519 10.2358 2.54578 10.5747 2.43579 10.9182C2.32957 11.2504 2.24072 11.6137 2.17172 11.9981C2.10324 12.3792 2.05694 12.7406 2.03398 13.0727C2.01141 13.3973 2 13.7352 2 14.0766C2 14.964 2.2821 15.6824 2.83838 16.2122C3.38779 16.735 4.11462 17.0001 4.99879 17.0001H13.1844C14.0683 17.0001 14.7951 16.735 15.3447 16.2122C15.9011 15.6828 16.1832 14.9641 16.1832 14.0764C16.1831 13.7339 16.1715 13.396 16.1488 13.0723V13.0723ZM14.6578 15.4904C14.2948 15.8359 13.8128 16.0039 13.1843 16.0039H4.99879C4.37013 16.0039 3.88817 15.8359 3.52527 15.4905C3.16924 15.1516 2.99622 14.689 2.99622 14.0766C2.99622 13.758 3.00673 13.4435 3.02774 13.1415C3.04823 12.8453 3.09013 12.5199 3.15225 12.1741C3.2136 11.8326 3.29168 11.5121 3.38454 11.222C3.47365 10.9438 3.59518 10.6683 3.74589 10.4029C3.88973 10.15 4.05522 9.93304 4.23784 9.7582C4.40865 9.59465 4.62396 9.4608 4.87765 9.36041C5.11228 9.26755 5.37595 9.21671 5.6622 9.20905C5.69709 9.2276 5.75922 9.26301 5.85986 9.32864C6.06466 9.4621 6.30071 9.61437 6.56167 9.78103C6.85583 9.96858 7.23481 10.138 7.68759 10.2841C8.15049 10.4338 8.6226 10.5098 9.0912 10.5098C9.55981 10.5098 10.032 10.4338 10.4947 10.2843C10.9479 10.1378 11.3267 9.96858 11.6213 9.78077C11.8883 9.61009 12.1177 9.46223 12.3225 9.32864C12.4232 9.26314 12.4853 9.2276 12.5202 9.20905C12.8066 9.21671 13.0703 9.26755 13.305 9.36041C13.5586 9.4608 13.7739 9.59478 13.9447 9.7582C14.1273 9.93291 14.2928 10.1499 14.4366 10.4031C14.5875 10.6683 14.7091 10.9439 14.7981 11.2219C14.8911 11.5124 14.9693 11.8327 15.0305 12.174C15.0925 12.5204 15.1346 12.846 15.1551 13.1417V13.1419C15.1762 13.4427 15.1868 13.7571 15.187 14.0766C15.1868 14.6891 15.0138 15.1516 14.6578 15.4904V15.4904Z" fill="#313131"/>
</g>
<defs>
<clipPath id="clip0_31_825">
<rect width="17" height="17" fill="white"/>
</clipPath>
</defs>
</svg>
