<svg width="16" height="16" viewBox="0 0 16 16" fill="none" xmlns="http://www.w3.org/2000/svg">
<g clip-path="url(#clip0_31_861)">
<path d="M7.65402 7.48127C8.68181 7.48127 9.57168 7.11264 10.299 6.38535C11.026 5.65817 11.3948 4.76842 11.3948 3.74052C11.3948 2.71296 11.0261 1.8231 10.2989 1.09568C9.57156 0.368625 8.68169 0 7.65402 0C6.62611 0 5.73637 0.368625 5.00919 1.0958C4.28201 1.82298 3.91327 2.71285 3.91327 3.74052C3.91327 4.76842 4.28201 5.65829 5.00919 6.38547C5.7366 7.11252 6.62647 7.48127 7.65402 7.48127V7.48127ZM5.65283 1.73933C6.2108 1.18135 6.86535 0.910127 7.65402 0.910127C8.44258 0.910127 9.09724 1.18135 9.65533 1.73933C10.2133 2.29742 10.4846 2.95208 10.4846 3.74052C10.4846 4.52919 10.2133 5.18373 9.65533 5.74182C9.09724 6.29992 8.44258 6.57114 7.65402 6.57114C6.86558 6.57114 6.21104 6.2998 5.65283 5.74182C5.09474 5.18385 4.8234 4.52919 4.8234 3.74052C4.8234 2.95208 5.09474 2.29742 5.65283 1.73933Z" fill="#989898"/>
<path d="M14.1994 11.9425C14.1784 11.6398 14.136 11.3097 14.0736 10.9611C14.0105 10.6099 13.9294 10.2779 13.8322 9.97444C13.7317 9.6608 13.5953 9.35106 13.4265 9.05424C13.2515 8.74617 13.0458 8.4779 12.815 8.25716C12.5736 8.02622 12.2781 7.84054 11.9364 7.70511C11.5958 7.57038 11.2184 7.50213 10.8147 7.50213C10.6562 7.50213 10.5029 7.56718 10.2067 7.75997C10.0245 7.87881 9.81134 8.01626 9.57342 8.16829C9.36997 8.29792 9.09436 8.41937 8.75393 8.52933C8.4218 8.6368 8.08458 8.69131 7.75162 8.69131C7.4189 8.69131 7.08167 8.6368 6.74931 8.52933C6.40924 8.41949 6.13351 8.29803 5.93042 8.16841C5.69474 8.0178 5.48146 7.88036 5.29649 7.75985C5.00062 7.56707 4.84729 7.50201 4.68875 7.50201C4.28494 7.50201 3.90766 7.57038 3.56724 7.70523C3.22575 7.84042 2.93011 8.0261 2.68851 8.25727C2.45769 8.47814 2.25199 8.74629 2.0771 9.05424C1.90849 9.35106 1.77199 9.66068 1.67151 9.97456C1.57446 10.278 1.4933 10.6099 1.43026 10.9611C1.3677 11.3092 1.32539 11.6395 1.30442 11.9428C1.2838 12.2394 1.27338 12.5481 1.27338 12.8599C1.27338 13.6706 1.53109 14.327 2.0393 14.811C2.54123 15.2886 3.20525 15.5308 4.013 15.5308H11.4912C12.2987 15.5308 12.9627 15.2886 13.4648 14.811C13.9731 14.3273 14.2308 13.6708 14.2308 12.8598C14.2307 12.5469 14.2201 12.2382 14.1994 11.9425V11.9425ZM12.8372 14.1516C12.5056 14.4673 12.0653 14.6207 11.4911 14.6207H4.013C3.43868 14.6207 2.99836 14.4673 2.66683 14.1517C2.34157 13.8421 2.1835 13.4194 2.1835 12.8599C2.1835 12.5689 2.1931 12.2816 2.2123 12.0057C2.23102 11.7351 2.26929 11.4378 2.32605 11.1219C2.38209 10.8099 2.45343 10.5171 2.53827 10.2521C2.61967 9.9979 2.73069 9.74623 2.86838 9.5038C2.99979 9.27274 3.15098 9.0745 3.31782 8.91478C3.47387 8.76536 3.67056 8.64308 3.90233 8.55137C4.11668 8.46653 4.35757 8.42008 4.61908 8.41309C4.65095 8.43003 4.70771 8.46238 4.79966 8.52234C4.98676 8.64426 5.20241 8.78337 5.44081 8.93563C5.70955 9.10697 6.05578 9.26172 6.46943 9.39526C6.89233 9.532 7.32363 9.60143 7.75174 9.60143C8.17985 9.60143 8.61127 9.532 9.03393 9.39538C9.44793 9.2616 9.79404 9.10697 10.0631 8.9354C10.3071 8.77946 10.5167 8.64438 10.7038 8.52234C10.7958 8.4625 10.8525 8.43003 10.8844 8.41309C11.146 8.42008 11.3869 8.46653 11.6014 8.55137C11.833 8.64308 12.0297 8.76548 12.1858 8.91478C12.3526 9.07439 12.5038 9.27262 12.6352 9.50392C12.773 9.74623 12.8842 9.99802 12.9654 10.2519C13.0504 10.5174 13.1219 10.81 13.1778 11.1218C13.2344 11.4383 13.2728 11.7357 13.2915 12.0058V12.0061C13.3108 12.2809 13.3206 12.5681 13.3207 12.8599C13.3206 13.4196 13.1625 13.8421 12.8372 14.1516V14.1516Z" fill="#989898"/>
</g>
<defs>
<clipPath id="clip0_31_861">
<rect width="15.5308" height="15.5308" fill="white"/>
</clipPath>
</defs>
</svg>
