<svg width="21" height="20" viewBox="0 0 21 20" fill="none" xmlns="http://www.w3.org/2000/svg">
<path d="M2.81665 17.6719H17.6201V17.0625H2.99512V11.8194H2.38574V17.241L1.77637 17.8504V1.64968L2.38574 2.25906V9.17874H2.99512V2.43753H9.60939V1.82816H2.81665L2.20727 1.21878H18.408L17.7986 1.82816H12.3769V2.43753H17.6201V10.6006H18.2295V2.25906L18.8389 1.64968V11.7178H19.4482V0.914093C19.4482 0.833285 19.4161 0.755786 19.359 0.698646C19.3019 0.641506 19.2244 0.609406 19.1436 0.609406H1.47168C1.39087 0.609406 1.31337 0.641506 1.25623 0.698646C1.19909 0.755786 1.16699 0.833285 1.16699 0.914093V18.586C1.16699 18.6668 1.19909 18.7443 1.25623 18.8014C1.31337 18.8586 1.39087 18.8907 1.47168 18.8907H18.3945V18.2813H2.20727L2.81665 17.6719Z" fill="#989898"/>
<path d="M18.5342 13.5325L19.5375 14.5358L19.9684 14.1049L18.9651 13.1016L19.0543 13.0124C19.0826 12.9841 19.1051 12.9505 19.1204 12.9135C19.1357 12.8766 19.1436 12.8369 19.1436 12.7969C19.1436 12.7569 19.1357 12.7173 19.1204 12.6803C19.1051 12.6433 19.0826 12.6098 19.0543 12.5815L14.7887 8.31584C14.7604 8.28755 14.7268 8.2651 14.6899 8.24979C14.6529 8.23448 14.6133 8.2266 14.5733 8.2266H10.0672L9.69825 7.84399V5.61063L12.0465 3.26237C12.0748 3.23408 12.0973 3.20049 12.1126 3.16352C12.1279 3.12655 12.1358 3.08693 12.1358 3.04692C12.1358 3.0069 12.1279 2.96728 12.1126 2.93031C12.0973 2.89335 12.0748 2.85976 12.0465 2.83146L11.1325 1.9174C11.1042 1.88911 11.0706 1.86666 11.0336 1.85135C10.9966 1.83604 10.957 1.82816 10.917 1.82816C10.877 1.82816 10.8374 1.83604 10.8004 1.85135C10.7634 1.86666 10.7298 1.88911 10.7016 1.9174L7.95936 4.65959L8.39027 5.09049L10.917 2.56372L11.4002 3.04692L3.6045 10.8426L3.12131 10.3594L7.78089 5.69987L7.34999 5.26896L2.47499 10.144C2.44669 10.1723 2.42425 10.2058 2.40894 10.2428C2.39362 10.2798 2.38574 10.3194 2.38574 10.3594C2.38574 10.3994 2.39362 10.4391 2.40894 10.476C2.42425 10.513 2.44669 10.5466 2.47499 10.5749L3.38905 11.4889C3.41734 11.5172 3.45093 11.5397 3.4879 11.555C3.52487 11.5703 3.56449 11.5782 3.6045 11.5782C3.64452 11.5782 3.68414 11.5703 3.72111 11.555C3.75807 11.5397 3.79166 11.5172 3.81996 11.4889L6.16822 9.14067H8.30663L8.80678 9.65928C8.66288 9.77969 8.55955 9.94149 8.51083 10.1227C8.4621 10.3039 8.47036 10.4957 8.53446 10.672C8.59856 10.8484 8.71541 11.0007 8.86911 11.1083C9.02282 11.2159 9.20593 11.2736 9.39357 11.2735C9.39385 11.5158 9.49024 11.7481 9.6616 11.9195C9.83296 12.0909 10.0653 12.1873 10.3076 12.1875C10.3079 12.4299 10.4043 12.6622 10.5757 12.8336C10.747 13.0049 10.9794 13.1013 11.2217 13.1016C11.222 13.3439 11.3184 13.5763 11.4897 13.7476C11.6611 13.919 11.8934 14.0154 12.1358 14.0157H13.0076L14.8111 15.886C14.9238 16.0031 15.0646 16.0894 15.2202 16.1366C15.3757 16.1837 15.5407 16.1902 15.6995 16.1553C15.8582 16.1205 16.0053 16.0455 16.1268 15.9376C16.2483 15.8296 16.3401 15.6923 16.3933 15.5387C16.396 15.5387 16.3987 15.5391 16.4014 15.5391C16.4414 15.5392 16.481 15.5313 16.518 15.516C16.555 15.5007 16.5886 15.4782 16.6168 15.4499L16.7061 15.3606L19.2328 17.8874L19.6637 17.4565L17.137 14.9297L18.5342 13.5325ZM9.44689 9.44535L8.88428 8.86195L9.36751 8.37895L10.3958 9.44535H9.44689ZM9.08888 6.22001V7.79574L8.35332 8.53129H6.77759L9.08888 6.22001ZM11.8311 13.1016V12.7969C11.8311 12.7161 11.799 12.6386 11.7418 12.5815C11.6847 12.5243 11.6072 12.4922 11.5264 12.4922H11.2217C11.1409 12.4921 11.0635 12.46 11.0063 12.4029C10.9492 12.3458 10.9171 12.2683 10.917 12.1875V11.8829C10.917 11.802 10.8849 11.7245 10.8278 11.6674C10.7706 11.6103 10.6931 11.5782 10.6123 11.5782H10.3076C10.2268 11.5781 10.1494 11.5459 10.0923 11.4888C10.0352 11.4317 10.003 11.3543 10.0029 11.2735V10.9688C10.0029 10.888 9.97084 10.8105 9.9137 10.7533C9.85656 10.6962 9.77906 10.6641 9.69825 10.6641H9.39357C9.31276 10.6641 9.23526 10.632 9.17812 10.5749C9.12098 10.5177 9.08888 10.4402 9.08888 10.3594C9.08888 10.2786 9.12098 10.2011 9.17812 10.144C9.23526 10.0868 9.31276 10.0547 9.39357 10.0547H12.7451V9.44535H11.2422L10.6547 8.83598H14.4471L18.408 12.7969L16.4014 14.8036L16.0706 14.4727L17.5309 13.0124L17.1 12.5815L15.6397 14.0418L15.0934 13.4955C15.0651 13.4672 15.0315 13.4448 14.9945 13.4295C14.9576 13.4142 14.918 13.4063 14.8779 13.4063H12.1358C12.055 13.4062 11.9775 13.3741 11.9204 13.317C11.8633 13.2598 11.8312 13.1824 11.8311 13.1016V13.1016ZM15.7372 15.4677C15.7052 15.4997 15.667 15.5251 15.625 15.5423C15.583 15.5594 15.538 15.5681 15.4927 15.5677C15.4473 15.5672 15.4025 15.5578 15.3608 15.5399C15.3192 15.5219 15.2815 15.4959 15.25 15.4632L13.8541 14.0157H14.7518L15.7908 15.0548C15.8287 15.1198 15.8441 15.1956 15.8344 15.2703C15.8247 15.345 15.7905 15.4144 15.7372 15.4677V15.4677Z" fill="#989898"/>
<path d="M12.3445 3.73857L11.9277 4.18314L16.8028 8.75342L17.2195 8.30886L12.3445 3.73857Z" fill="#989898"/>
<path d="M4.73363 11.3627L4.30273 11.7936L9.17773 16.6686L9.60862 16.2377L4.73363 11.3627Z" fill="#989898"/>
<path d="M14.179 3.44073L13.748 3.87161L16.1855 6.30921L16.6164 5.87833L14.179 3.44073Z" fill="#989898"/>
<path d="M4.42896 13.1906L3.99805 13.6215L6.43547 16.0591L6.86638 15.6282L4.42896 13.1906Z" fill="#989898"/>
</svg>
