<svg width="23" height="20" viewBox="0 0 23 20" fill="none" xmlns="http://www.w3.org/2000/svg">
<path d="M21.602 15.3301L20.9371 13.6153C20.7966 13.2576 20.5675 12.9303 20.2657 12.6557C19.9639 12.3812 19.5964 12.166 19.1886 12.0248C18.7807 11.8836 18.3421 11.8199 17.9028 11.8379C17.4635 11.856 17.0339 11.9554 16.6436 12.1293L13.3687 9.31857L13.5615 9.15343L14.3144 9.79967C14.381 9.85679 14.4713 9.88888 14.5654 9.88888C14.6596 9.88888 14.7498 9.85679 14.8164 9.79967L15.3184 9.36884C15.3514 9.34054 15.3776 9.30694 15.3954 9.26995C15.4133 9.23296 15.4225 9.19332 15.4225 9.15327C15.4225 9.11323 15.4133 9.07359 15.3954 9.0366C15.3776 8.99961 15.3514 8.96601 15.3184 8.93771L15.0674 8.72229L15.5697 8.29147L15.8207 8.50688C15.8873 8.564 15.9776 8.59609 16.0717 8.59609C16.1659 8.59609 16.2561 8.564 16.3227 8.50688L21.3432 4.19799C21.5429 4.02658 21.6551 3.79412 21.6551 3.55175C21.6551 3.30937 21.5429 3.07692 21.3432 2.90551L19.3353 1.18189C19.2364 1.09699 19.119 1.02965 18.9898 0.983705C18.8605 0.93776 18.722 0.914112 18.5822 0.914112C18.4423 0.914112 18.3038 0.93776 18.1745 0.983705C18.0453 1.02965 17.9279 1.09699 17.829 1.18189L12.8085 5.49078C12.7419 5.54792 12.7045 5.6254 12.7045 5.70619C12.7045 5.78699 12.7419 5.86447 12.8085 5.92161L13.0595 6.13702L12.5575 6.56815L12.3061 6.35244C12.2383 6.29746 12.1485 6.26683 12.0552 6.26683C11.9618 6.26683 11.872 6.29746 11.8042 6.35244L11.3022 6.78357C11.2356 6.84071 11.1982 6.91819 11.1982 6.99898C11.1982 7.07977 11.2356 7.15726 11.3022 7.2144L12.0552 7.86094L11.8627 8.02639L8.58779 5.21565C8.88381 4.7222 8.99055 4.16108 8.89274 3.61245C8.79494 3.06382 8.4976 2.55576 8.04321 2.16085C7.70746 1.8759 7.30069 1.66014 6.85358 1.52984L4.85879 0.960077C4.67078 0.905961 4.46887 0.898173 4.27596 0.937597C4.08306 0.977021 3.9069 1.06208 3.76749 1.18311L3.57579 1.34764C3.50923 1.40478 3.47185 1.48226 3.47185 1.56305C3.47185 1.64385 3.50923 1.72133 3.57579 1.77847L5.58513 3.49995C5.61819 3.52825 5.64442 3.56188 5.66232 3.59889C5.68022 3.63591 5.68943 3.67559 5.68943 3.71567C5.68943 3.75575 5.68022 3.79543 5.66232 3.83245C5.64442 3.86946 5.61819 3.90309 5.58513 3.93139L4.5794 4.79365C4.51159 4.84886 4.42169 4.87964 4.32823 4.87964C4.23477 4.87964 4.14487 4.84886 4.07706 4.79365L2.07126 3.06912C2.00488 3.01213 1.91488 2.98003 1.82098 2.97985C1.72684 2.97987 1.63655 3.01198 1.56999 3.06912L1.37829 3.23365C1.23734 3.35328 1.13827 3.50441 1.09234 3.66991C1.04641 3.83541 1.05544 4.00864 1.11842 4.16996L1.78335 5.88474C1.93523 6.26784 2.18651 6.61633 2.51822 6.90392C2.97832 7.29364 3.57014 7.54863 4.20916 7.63246C4.84818 7.71629 5.50173 7.62467 6.07647 7.3707L9.35141 10.1814L3.88429 14.8736L2.98186 14.8346C2.92123 14.8317 2.86075 14.8422 2.80626 14.8652C2.75178 14.8882 2.70514 14.9229 2.67087 14.966L1.1273 16.8897C1.08028 16.9484 1.05869 17.0194 1.06628 17.0903C1.07386 17.1612 1.11015 17.2276 1.16883 17.2779L2.58887 18.4967C2.64789 18.5473 2.72584 18.5785 2.80901 18.5848C2.89218 18.591 2.97525 18.5719 3.04363 18.5308L5.26918 17.1923C5.31776 17.1631 5.35705 17.124 5.38347 17.0784C5.40988 17.0329 5.42258 16.9823 5.42041 16.9315L5.38704 16.1698L10.8574 11.4739L14.1323 14.2847C13.9292 14.6199 13.8132 14.9889 13.7921 15.3662C13.7711 15.7436 13.8455 16.1204 14.0103 16.4708C14.1751 16.8211 14.4263 17.1366 14.7468 17.3957C15.0672 17.6547 15.4492 17.8511 15.8665 17.9714L17.8613 18.5412C18.0493 18.5953 18.2512 18.6031 18.4441 18.5636C18.637 18.5242 18.8132 18.4392 18.9526 18.3181L19.1443 18.1536C19.2109 18.0965 19.2483 18.019 19.2483 17.9382C19.2483 17.8574 19.2109 17.7799 19.1443 17.7228L17.1357 16.0016C17.1026 15.9733 17.0763 15.9396 17.0584 15.9026C17.0404 15.8655 17.0312 15.8258 17.0312 15.7857C17.0312 15.7456 17.0404 15.7059 17.0584 15.6688C17.0763 15.6318 17.1026 15.5982 17.1357 15.5698L18.1403 14.7076C18.2081 14.6523 18.298 14.6215 18.3915 14.6215C18.485 14.6215 18.5749 14.6523 18.6427 14.7076L20.6485 16.4321C20.6815 16.4604 20.7206 16.4829 20.7637 16.4982C20.8068 16.5136 20.853 16.5215 20.8996 16.5215C20.9463 16.5215 20.9925 16.5136 21.0356 16.4982C21.0787 16.4829 21.1178 16.4604 21.1508 16.4321L21.3425 16.2676C21.4835 16.1477 21.5825 15.9963 21.6284 15.8306C21.6743 15.6649 21.6651 15.4915 21.602 15.3301V15.3301ZM16.0717 7.86094L15.5697 7.43011L19.3357 4.19799C19.4032 4.14262 19.4931 4.11172 19.5865 4.11172C19.6799 4.11172 19.7697 4.14262 19.8373 4.19799L20.0883 4.4134L16.0717 7.86094ZM18.8333 1.61272L20.8413 3.33633C20.9078 3.39347 20.9452 3.47096 20.9452 3.55175C20.9452 3.63254 20.9078 3.71002 20.8413 3.76716L20.5903 3.98258L20.3393 3.76716C20.1364 3.60091 19.8668 3.50815 19.5863 3.50815C19.3058 3.50815 19.0362 3.60091 18.8333 3.76716L15.0678 6.99898L14.5654 6.56785L18.331 3.33633C18.4299 3.25145 18.5084 3.15068 18.5619 3.03977C18.6154 2.92886 18.643 2.80999 18.643 2.68994C18.643 2.56989 18.6154 2.45102 18.5619 2.34011C18.5084 2.2292 18.4299 2.12843 18.331 2.04355L18.08 1.82813L18.331 1.61272C18.364 1.58439 18.4031 1.56191 18.4462 1.54658C18.4893 1.53125 18.5355 1.52336 18.5822 1.52336C18.6288 1.52336 18.675 1.53125 18.7181 1.54658C18.7612 1.56191 18.8004 1.58439 18.8333 1.61272V1.61272ZM17.578 2.25896L17.829 2.47437C17.862 2.50267 17.8882 2.53627 17.9061 2.57326C17.9239 2.61025 17.9331 2.6499 17.9331 2.68994C17.9331 2.72998 17.9239 2.76963 17.9061 2.80662C17.8882 2.84361 17.862 2.87721 17.829 2.90551L14.0634 6.13702L13.5611 5.70619L17.578 2.25896ZM12.0552 6.99868L12.3065 7.2144C12.3731 7.27152 12.4634 7.3036 12.5575 7.3036C12.6516 7.3036 12.7419 7.27152 12.8085 7.2144L13.5611 6.56785L15.0678 7.86094L14.3144 8.50688C14.2479 8.56402 14.2105 8.6415 14.2105 8.72229C14.2105 8.80309 14.2479 8.88057 14.3144 8.93771L14.5654 9.15343L12.0552 6.99898V6.99868ZM5.94085 6.7336C5.49179 6.98131 4.95783 7.09039 4.42689 7.04287C3.89595 6.99535 3.3997 6.79407 3.01985 6.47218C2.76537 6.25122 2.57261 5.98359 2.45609 5.68944L1.79223 3.97709C1.77582 3.93482 1.7705 3.88996 1.77664 3.84572C1.78277 3.80147 1.80022 3.75894 1.82773 3.72115L3.57614 5.22418C3.77917 5.39033 4.04894 5.48302 4.32947 5.48302C4.61 5.48302 4.87977 5.39033 5.0828 5.22418L6.08747 4.36191C6.18649 4.27702 6.26505 4.17621 6.31864 4.06524C6.37224 3.95428 6.39983 3.83533 6.39983 3.71521C6.39983 3.59509 6.37224 3.47615 6.31864 3.36518C6.26505 3.25422 6.18649 3.15341 6.08747 3.06851L4.33586 1.56854C4.37995 1.54506 4.4295 1.53017 4.48103 1.52491C4.53255 1.51964 4.58479 1.52414 4.63407 1.53807L6.62673 2.10722C6.97016 2.20709 7.28272 2.37252 7.54087 2.59107C7.91604 2.91714 8.15066 3.34314 8.20609 3.79893C8.26152 4.25471 8.13446 4.71311 7.84583 5.09865C7.80152 5.15721 7.782 5.22706 7.79053 5.2965C7.79906 5.36595 7.83513 5.43077 7.89269 5.48012L9.10823 6.52336C8.72537 6.56495 8.36949 6.71463 8.0966 6.94883C7.82372 7.18304 7.64932 7.48847 7.60087 7.81707L6.38532 6.77382C6.32782 6.72442 6.2523 6.69347 6.17139 6.68615C6.09048 6.67882 6.00909 6.69558 5.94085 6.7336V6.7336ZM8.59809 8.67294C8.40408 8.50054 8.29674 8.26965 8.29916 8.02998C8.30159 7.79032 8.4136 7.56106 8.61106 7.39159C8.80852 7.22211 9.07565 7.12598 9.35489 7.1239C9.63414 7.12181 9.90317 7.21395 10.104 7.38045L11.36 8.45691L9.8534 9.75001L8.59809 8.67294ZM4.77536 15.8331C4.7408 15.8628 4.71376 15.8982 4.69592 15.9373C4.67808 15.9764 4.66984 16.0182 4.6717 16.0601L4.70365 16.7895L2.88033 17.8852L1.88134 17.0262L3.14445 15.4519L4.00535 15.49C4.05499 15.4922 4.10463 15.4855 4.15104 15.4702C4.19746 15.455 4.23962 15.4315 4.2748 15.4013L12.5575 8.29147L13.0595 8.7226L4.77536 15.8331ZM12.8667 9.75001L14.122 10.8274C14.319 10.9993 14.4289 11.2311 14.4277 11.4722C14.4266 11.7133 14.3144 11.9443 14.1157 12.1148C13.917 12.2853 13.6479 12.3815 13.3669 12.3824C13.086 12.3834 12.816 12.289 12.6157 12.1199L11.36 11.0431L12.8667 9.75001ZM20.8927 15.7786L19.1447 14.2758C18.9417 14.1095 18.6718 14.0167 18.3912 14.0167C18.1105 14.0167 17.8407 14.1095 17.6377 14.2758L16.633 15.1381C16.4336 15.3098 16.3217 15.5424 16.3217 15.7848C16.3217 16.0272 16.4336 16.2598 16.633 16.4315L18.3835 17.9318C18.3395 17.9554 18.29 17.9704 18.2384 17.9757C18.1868 17.981 18.1346 17.9764 18.0853 17.9622L16.0934 17.3931C15.7554 17.2959 15.4479 17.1337 15.1942 16.9188C14.9405 16.7039 14.7475 16.4421 14.6299 16.1533C14.5123 15.8646 14.4732 15.5566 14.5156 15.2529C14.558 14.9491 14.6808 14.6578 14.8746 14.4011C14.919 14.3425 14.9386 14.2727 14.9301 14.2033C14.9216 14.1338 14.8856 14.069 14.8281 14.0196L13.6122 12.9763C13.995 12.9346 14.3508 12.7849 14.6238 12.5508C14.8967 12.3167 15.0714 12.0115 15.1203 11.6829L16.3355 12.7259C16.393 12.7752 16.4684 12.8061 16.5493 12.8134C16.6301 12.8208 16.7114 12.8041 16.7796 12.7661C17.0786 12.6 17.4178 12.4948 17.7714 12.4585C18.125 12.4221 18.4836 12.4556 18.8198 12.5563C19.1561 12.657 19.461 12.8224 19.7114 13.0397C19.9619 13.257 20.1511 13.5206 20.2647 13.8103L20.9286 15.5223C20.945 15.5647 20.9502 15.6096 20.944 15.6539C20.9379 15.6982 20.9203 15.7407 20.8927 15.7786V15.7786Z" fill="#989898"/>
</svg>
