<svg width="20" height="20" viewBox="0 0 20 20" fill="none" xmlns="http://www.w3.org/2000/svg">
<path d="M18.5869 11.2734C18.6677 11.2734 18.7452 11.2413 18.8024 11.1842C18.8595 11.1271 18.8916 11.0496 18.8916 10.9688V8.53125C18.8916 8.45044 18.8595 8.37294 18.8024 8.3158C18.7452 8.25866 18.6677 8.22656 18.5869 8.22656H16.9011C16.7159 7.35275 16.3712 6.52056 15.8843 5.7717L17.0751 4.57823C17.1321 4.52111 17.1641 4.44369 17.1641 4.36297C17.1641 4.28226 17.1321 4.20484 17.0751 4.14771L15.3536 2.42623C15.2964 2.3692 15.219 2.33717 15.1383 2.33717C15.0576 2.33717 14.9802 2.3692 14.923 2.42623L13.7293 3.61664C12.9804 3.12977 12.1482 2.7851 11.2744 2.5999V0.914062C11.2744 0.833254 11.2423 0.755756 11.1852 0.698616C11.128 0.641476 11.0505 0.609375 10.9697 0.609375H8.53223C8.45142 0.609375 8.37392 0.641476 8.31678 0.698616C8.25964 0.755756 8.22754 0.833254 8.22754 0.914062V2.5999C7.35373 2.7851 6.52154 3.12977 5.77267 3.61664L4.57921 2.42592C4.52209 2.36889 4.44467 2.33687 4.36395 2.33687C4.28323 2.33687 4.20581 2.36889 4.14869 2.42592L2.4272 4.14741C2.37018 4.20453 2.33815 4.28195 2.33815 4.36267C2.33815 4.44339 2.37018 4.5208 2.4272 4.57793L3.61792 5.77139C3.13091 6.52033 2.78613 7.35263 2.60087 8.22656H0.915039C0.834231 8.22656 0.756732 8.25866 0.699592 8.3158C0.642452 8.37294 0.610352 8.45044 0.610352 8.53125V10.9688C0.610352 11.0496 0.642452 11.1271 0.699592 11.1842C0.756732 11.2413 0.834231 11.2734 0.915039 11.2734H2.60087C2.78607 12.1472 3.13075 12.9794 3.61762 13.7283L2.4269 14.9218C2.36987 14.9789 2.33784 15.0563 2.33784 15.137C2.33784 15.2177 2.36987 15.2952 2.4269 15.3523L4.14838 17.0738C4.20551 17.1308 4.28293 17.1628 4.36364 17.1628C4.44436 17.1628 4.52178 17.1308 4.57891 17.0738L5.77237 15.8831C6.5213 16.3701 7.3536 16.7148 8.22754 16.9001V18.5859C8.22754 18.6667 8.25964 18.7442 8.31678 18.8014C8.37392 18.8585 8.45142 18.8906 8.53223 18.8906H10.9697C11.0505 18.8906 11.128 18.8585 11.1852 18.8014C11.2423 18.7442 11.2744 18.6667 11.2744 18.5859V16.9001C12.148 16.7142 12.9798 16.369 13.7284 15.8818L16.2143 18.3678C16.5004 18.6514 16.8873 18.8102 17.2902 18.8093C17.693 18.8084 18.0792 18.648 18.3641 18.3631C18.6489 18.0782 18.8094 17.6921 18.8103 17.2892C18.8111 16.8863 18.6524 16.4995 18.3688 16.2133L15.8828 13.7274C16.37 12.9788 16.7151 12.147 16.9011 11.2734H18.5869ZM17.9379 17.937C17.853 18.0218 17.7523 18.0892 17.6414 18.1351C17.5305 18.1811 17.4116 18.2047 17.2915 18.2047C17.1715 18.2047 17.0526 18.1811 16.9417 18.1351C16.8308 18.0892 16.73 18.0218 16.6451 17.937L10.811 12.1031C10.6693 11.9616 10.501 11.8495 10.3157 11.7734C10.1305 11.6972 9.93204 11.6585 9.73178 11.6595C9.66824 11.6595 9.60475 11.6632 9.54166 11.6708C9.14636 11.7182 8.74545 11.6681 8.37404 11.5247C8.00262 11.3813 7.67203 11.149 7.41121 10.8482C7.15039 10.5474 6.9673 10.1872 6.87797 9.7992C6.78863 9.41121 6.79579 9.00724 6.8988 8.62266L8.24277 9.96694C8.2999 10.0241 8.37739 10.0562 8.45819 10.0562H9.75098C9.83178 10.0562 9.90928 10.0241 9.96642 9.96697C10.0236 9.90983 10.0557 9.83233 10.0557 9.75152V8.45721C10.0556 8.37641 10.0235 8.29892 9.96639 8.2418L8.62363 6.89782C9.00813 6.79505 9.41196 6.78808 9.79978 6.87753C10.1876 6.96697 10.5476 7.1501 10.8482 7.41089C11.1489 7.67167 11.3811 8.00217 11.5244 8.37346C11.6678 8.74475 11.7179 9.14551 11.6705 9.54068C11.6411 9.77121 11.6648 10.0054 11.7397 10.2254C11.8146 10.4454 11.9389 10.6454 12.1029 10.81L17.9379 16.6442C18.0228 16.729 18.0902 16.8298 18.1361 16.9407C18.1821 17.0516 18.2057 17.1705 18.2057 17.2906C18.2057 17.4106 18.1821 17.5295 18.1361 17.6404C18.0902 17.7513 18.0228 17.8521 17.9379 17.937V17.937ZM12.5349 10.3807C12.4363 10.2811 12.3619 10.1603 12.3172 10.0274C12.2725 9.89462 12.2588 9.75334 12.2771 9.61441C12.3424 9.07284 12.261 8.52366 12.0414 8.02431C11.8218 7.52496 11.4721 7.09378 11.0289 6.77585C10.5856 6.45791 10.065 6.2649 9.52165 6.217C8.97825 6.1691 8.43197 6.26807 7.93991 6.50355C7.896 6.52463 7.85779 6.55593 7.82847 6.59482C7.79914 6.63372 7.77958 6.67907 7.7714 6.72709C7.76322 6.7751 7.76668 6.82438 7.78147 6.87079C7.79627 6.91719 7.82197 6.95937 7.85643 6.9938L9.44629 8.58335V9.44531H8.58433L6.99477 7.85545C6.96035 7.82099 6.91817 7.79529 6.87176 7.78049C6.82536 7.7657 6.77608 7.76225 6.72806 7.77042C6.68005 7.7786 6.63469 7.79817 6.5958 7.82749C6.55691 7.85681 6.52561 7.89503 6.50453 7.93894C6.26912 8.43085 6.17016 8.97696 6.21799 9.5202C6.26583 10.0634 6.4587 10.5839 6.77645 11.0271C7.0942 11.4703 7.52517 11.82 8.02431 12.0397C8.52344 12.2593 9.07242 12.3409 9.61387 12.2759C9.75282 12.2576 9.89411 12.2714 10.0269 12.3161C10.1597 12.3608 10.2806 12.4353 10.3802 12.5339L11.9475 14.1009C10.9121 14.624 9.72414 14.761 8.59687 14.4872C7.4696 14.2135 6.47677 13.547 5.79654 12.6074C5.11632 11.6677 4.79322 10.5164 4.88524 9.36001C4.97725 8.20364 5.47835 7.1179 6.29861 6.29764C7.11888 5.47737 8.20461 4.97628 9.36099 4.88426C10.5174 4.79225 11.6687 5.11534 12.6083 5.79557C13.548 6.47579 14.2145 7.46862 14.4882 8.59589C14.7619 9.72316 14.625 10.9111 14.1019 11.9465L12.5349 10.3807ZM16.349 10.9188C16.2021 11.7597 15.8944 12.5645 15.4428 13.2889L14.5519 12.398C15.1911 11.2397 15.3906 9.8896 15.1137 8.59593C14.8369 7.30227 14.1022 6.15207 13.0449 5.35689C11.9876 4.5617 10.6787 4.175 9.35898 4.26791C8.03928 4.36082 6.7975 4.92709 5.86202 5.86257C4.92654 6.79804 4.36027 8.03983 4.26737 9.35953C4.17446 10.6792 4.56116 11.9881 5.35634 13.0454C6.15152 14.1027 7.30172 14.8374 8.59538 15.1143C9.88905 15.3912 11.2392 15.1917 12.3975 14.5525L13.2884 15.4434C12.5639 15.8949 11.7592 16.2026 10.9182 16.3495C10.8477 16.3616 10.7836 16.3982 10.7373 16.4528C10.691 16.5074 10.6654 16.5765 10.665 16.6481V18.2812H8.83691V16.6481C8.83687 16.5763 8.81144 16.5068 8.76511 16.4518C8.71878 16.3969 8.65453 16.3601 8.58372 16.348C7.62257 16.1798 6.71032 15.8017 5.91191 15.2408C5.85324 15.1995 5.7819 15.1803 5.71045 15.1865C5.639 15.1927 5.57202 15.2239 5.5213 15.2746L4.36593 16.4278L3.07466 15.1366L4.22791 13.9812C4.27861 13.9305 4.3098 13.8635 4.31599 13.7921C4.32218 13.7206 4.30296 13.6493 4.26173 13.5906C3.70058 12.7917 3.32252 11.8789 3.15449 10.9173C3.14231 10.8462 3.10531 10.7817 3.05008 10.7354C2.99485 10.689 2.92496 10.6637 2.85285 10.6641H1.21973V8.83594H2.85285C2.9247 8.83589 2.99422 8.81046 3.04914 8.76413C3.10405 8.7178 3.14083 8.65356 3.15297 8.58274C3.32121 7.62159 3.69926 6.70935 4.2602 5.91094C4.30144 5.85226 4.32065 5.78092 4.31447 5.70947C4.30828 5.63802 4.27709 5.57104 4.22638 5.52033L3.07314 4.36495L4.36441 3.07369L5.51978 4.22693C5.5705 4.27764 5.63747 4.30883 5.70892 4.31501C5.78037 4.3212 5.85171 4.30198 5.91039 4.26075C6.70925 3.6996 7.62204 3.32155 8.58372 3.15352C8.65479 3.14133 8.71924 3.10433 8.7656 3.0491C8.81196 2.99387 8.83723 2.92398 8.83691 2.85187V1.21875H10.665V2.85187C10.6651 2.92372 10.6905 2.99324 10.7368 3.04816C10.7832 3.10307 10.8474 3.13985 10.9182 3.15199C11.8799 3.32002 12.7927 3.69808 13.5916 4.25923C13.6502 4.30046 13.7216 4.31968 13.793 4.31349C13.8645 4.3073 13.9315 4.27611 13.9822 4.22541L15.1375 3.07216L16.4288 4.36343L15.2756 5.5188C15.2249 5.56952 15.1937 5.6365 15.1875 5.70795C15.1813 5.7794 15.2005 5.85074 15.2417 5.90941C15.8029 6.70827 16.181 7.62106 16.349 8.58274C16.3611 8.65356 16.3979 8.7178 16.4528 8.76413C16.5077 8.81046 16.5773 8.83589 16.6491 8.83594H18.2822V10.6641H16.6491C16.5773 10.6641 16.5077 10.6895 16.4528 10.7359C16.3979 10.7822 16.3611 10.8464 16.349 10.9173V10.9188Z" fill="#989898"/>
<path d="M11.69 11.2582C11.6619 11.2291 11.6283 11.2059 11.5911 11.1899C11.5539 11.174 11.5139 11.1656 11.4735 11.1652C11.433 11.1649 11.3929 11.1726 11.3555 11.1879C11.318 11.2032 11.284 11.2258 11.2554 11.2544C11.2268 11.283 11.2041 11.3171 11.1888 11.3545C11.1735 11.3919 11.1658 11.4321 11.1661 11.4725C11.1665 11.513 11.1749 11.553 11.1909 11.5901C11.2068 11.6273 11.2301 11.6609 11.2592 11.689L11.4746 11.9045C11.532 11.96 11.609 11.9907 11.6889 11.99C11.7688 11.9893 11.8452 11.9572 11.9017 11.9007C11.9582 11.8442 11.9902 11.7678 11.9909 11.6879C11.9916 11.6081 11.9609 11.5311 11.9054 11.4736L11.69 11.2582Z" fill="#989898"/>
<path d="M15.999 16.4287C16.0565 16.4842 16.1334 16.515 16.2133 16.5143C16.2932 16.5136 16.3696 16.4815 16.4261 16.425C16.4826 16.3685 16.5147 16.2921 16.5154 16.2122C16.516 16.1323 16.4853 16.0554 16.4298 15.9979L12.7675 12.3353C12.7103 12.2781 12.6328 12.246 12.5519 12.246C12.4711 12.246 12.3935 12.2781 12.3364 12.3353C12.2792 12.3924 12.2471 12.47 12.2471 12.5508C12.2471 12.6317 12.2792 12.7092 12.3364 12.7664L15.999 16.4287Z" fill="#989898"/>
<path d="M17.0763 17.5061C17.1338 17.5616 17.2107 17.5923 17.2906 17.5916C17.3705 17.5909 17.4469 17.5589 17.5034 17.5024C17.5599 17.4459 17.592 17.3695 17.5927 17.2896C17.5934 17.2097 17.5626 17.1327 17.5071 17.0753L17.2917 16.8596C17.2346 16.8024 17.157 16.7703 17.0762 16.7703C16.9953 16.7703 16.9178 16.8024 16.8606 16.8596C16.8034 16.9167 16.7713 16.9943 16.7713 17.0751C16.7713 17.156 16.8034 17.2335 16.8606 17.2907L17.0763 17.5061Z" fill="#989898"/>
</svg>
