<svg width="64" height="72" viewBox="0 0 64 72" fill="none" xmlns="http://www.w3.org/2000/svg">
<g clip-path="url(#clip0_276_373)" filter="url(#filter0_d_276_373)">
<g filter="url(#filter1_d_276_373)">
<path d="M31.9667 0C19.8488 0 9.99023 9.85861 9.99023 21.9764V22.0599C9.99023 26.4036 11.1552 30.6782 13.3591 34.4212L30.1914 63.0087C30.5276 63.5796 31.1397 63.931 31.8021 63.9332H31.8086C32.4685 63.9332 33.0803 63.5865 33.4193 63.0199L50.4884 34.4824C52.7485 30.7039 53.9431 26.3794 53.9431 21.9764C53.9431 9.85861 44.0845 0 31.9667 0V0ZM31.8088 31.8282C26.5913 31.8282 22.3618 27.5986 22.3618 22.3812C22.3618 17.1637 26.5913 12.9342 31.8088 12.9342C37.0262 12.9342 41.2558 17.1637 41.2558 22.3812C41.2558 27.5985 37.0262 31.8282 31.8088 31.8282Z" fill="#58D7FF"/>
</g>
</g>
<defs>
<filter id="filter0_d_276_373" x="-4" y="0" width="71.9331" height="71.9331" filterUnits="userSpaceOnUse" color-interpolation-filters="sRGB">
<feFlood flood-opacity="0" result="BackgroundImageFix"/>
<feColorMatrix in="SourceAlpha" type="matrix" values="0 0 0 0 0 0 0 0 0 0 0 0 0 0 0 0 0 0 127 0" result="hardAlpha"/>
<feOffset dy="4"/>
<feGaussianBlur stdDeviation="2"/>
<feComposite in2="hardAlpha" operator="out"/>
<feColorMatrix type="matrix" values="0 0 0 0 0 0 0 0 0 0 0 0 0 0 0 0 0 0 0.25 0"/>
<feBlend mode="normal" in2="BackgroundImageFix" result="effect1_dropShadow_276_373"/>
<feBlend mode="normal" in="SourceGraphic" in2="effect1_dropShadow_276_373" result="shape"/>
</filter>
<filter id="filter1_d_276_373" x="-35.6763" y="-45.6666" width="135.286" height="155.266" filterUnits="userSpaceOnUse" color-interpolation-filters="sRGB">
<feFlood flood-opacity="0" result="BackgroundImageFix"/>
<feColorMatrix in="SourceAlpha" type="matrix" values="0 0 0 0 0 0 0 0 0 0 0 0 0 0 0 0 0 0 127 0" result="hardAlpha"/>
<feOffset/>
<feGaussianBlur stdDeviation="22.8333"/>
<feComposite in2="hardAlpha" operator="out"/>
<feColorMatrix type="matrix" values="0 0 0 0 0.345098 0 0 0 0 0.843137 0 0 0 0 1 0 0 0 0.3 0"/>
<feBlend mode="normal" in2="BackgroundImageFix" result="effect1_dropShadow_276_373"/>
<feBlend mode="normal" in="SourceGraphic" in2="effect1_dropShadow_276_373" result="shape"/>
</filter>
<clipPath id="clip0_276_373">
<rect width="63.9332" height="63.9332" fill="white"/>
</clipPath>
</defs>
</svg>
